<?xml version="1.0" encoding="utf-8"?>
<!-- Generator: Adobe Illustrator 17.0.0, SVG Export Plug-In . SVG Version: 6.00 Build 0)  -->
<!DOCTYPE svg PUBLIC "-//W3C//DTD SVG 1.1//EN" "http://www.w3.org/Graphics/SVG/1.1/DTD/svg11.dtd">
<svg version="1.1" id="Calque_1" xmlns="http://www.w3.org/2000/svg" xmlns:xlink="http://www.w3.org/1999/xlink" x="0px" y="0px"
	 width="98.138px" height="31.544px" viewBox="0 0 98.138 31.544" enable-background="new 0 0 98.138 31.544" xml:space="preserve">
<g>
	<rect x="0" y="0" fill="#010101" width="98.137" height="31.544"/>
	<g>
		<path fill="#FFFFFF" d="M27.661,10.076l-2.121,12.111h-3.781l1.061-6.056l-2.925,6.056h-3.251l-0.804-6.039l-1.06,6.039h-3.798
			l2.121-12.111h4.653l1.403,7.253l3.866-7.253H27.661z"/>
		<path fill="#FFFFFF" d="M33.169,10.076l-2.121,12.111H27.25l2.121-12.111H33.169z"/>
		<path fill="#FFFFFF" d="M43.492,10.957c0.678,0.587,1.018,1.366,1.018,2.335c0,0.274-0.023,0.525-0.068,0.753
			c-0.149,0.821-0.505,1.543-1.069,2.164c-0.565,0.622-1.291,1.069-2.181,1.343l1.831,4.636h-4.174l-1.539-4.345l-0.753,4.345
			h-3.798l2.121-12.111h5.645C41.825,10.076,42.814,10.369,43.492,10.957z M37.753,15.31h1.505c0.742,0,1.169-0.342,1.283-1.027
			c0.011-0.057,0.017-0.131,0.017-0.222c0-0.251-0.077-0.448-0.231-0.59c-0.154-0.142-0.385-0.214-0.693-0.214H38.13L37.753,15.31z"
			/>
		<path fill="#FFFFFF" d="M52.311,20.357h-4.037l-0.924,1.83h-3.986l6.551-12.111h4.38l2.292,12.111h-4.003L52.311,20.357z
			 M51.883,17.5l-0.496-3.37l-1.694,3.37H51.883z"/>
		<path fill="#FFFFFF" d="M68.014,10.503c0.73,0.365,1.28,0.87,1.65,1.514c0.371,0.645,0.573,1.377,0.608,2.198h-4.003
			c-0.103-0.239-0.28-0.424-0.531-0.556c-0.251-0.131-0.57-0.197-0.958-0.197c-0.73,0-1.337,0.237-1.822,0.71
			c-0.485,0.473-0.802,1.121-0.95,1.942c-0.057,0.319-0.085,0.593-0.085,0.821c0,0.673,0.188,1.175,0.565,1.505
			c0.376,0.331,0.958,0.496,1.745,0.496c0.878,0,1.648-0.353,2.31-1.061h-3.028l0.479-2.686h6.175l-0.667,3.798
			c-1.357,2.19-3.444,3.285-6.261,3.285c-1.084,0-2.015-0.205-2.797-0.616s-1.377-0.989-1.787-1.736
			c-0.411-0.747-0.616-1.617-0.616-2.609c0-0.468,0.04-0.924,0.12-1.369c0.206-1.163,0.636-2.198,1.291-3.105
			c0.656-0.906,1.494-1.613,2.515-2.121c1.021-0.507,2.153-0.761,3.396-0.761C66.4,9.956,67.284,10.138,68.014,10.503z"/>
		<path fill="#FFFFFF" d="M75.694,13.086l-0.257,1.505h3.764l-0.513,2.857h-3.764l-0.291,1.711h4.277l-0.53,3.028h-8.074
			l2.121-12.111h8.074l-0.53,3.011H75.694z"/>
		<path fill="#FFFFFF" d="M85.326,18.561l-0.65,3.626h-3.763l0.65-3.626H85.326z M87.156,9.272l-1.881,8.108h-3.25l0.992-8.108
			H87.156z"/>
	</g>
</g>
</svg>
