<svg xmlns="http://www.w3.org/2000/svg" viewBox="0 0 82.67 31.54"><defs><style>.cls-1{fill:#000;}</style></defs><title>Fichier 5</title><g id="Calque_2" data-name="Calque 2"><g id="actualiter"><path class="cls-1" d="M1.18,24.61l3.46-5.08H0c1-1.46,1.9-2.71,2.8-4,.08-.11.31-.14.47-.16a1.46,1.46,0,0,1,.53,0c2.83.61,4.59-.63,5.87-3.1a53.44,53.44,0,0,1,3.13-4.66A1.34,1.34,0,0,1,14.08,7c2,0,4,0,6,0,.73,0,.89.24.88.91,0,2.19,0,4.38,0,6.57,0,.82.25,1,1,1a22.89,22.89,0,0,1,2.75,0c.62,0,.77-.21.76-.8,0-2.26,0-4.52,0-6.78,0-.59.07-.89.79-.88,4.2,0,8.41,0,12.87,0C38,8.41,37,9.71,36,11c-.2.25-.53.16-.8.16-1.31,0-2.62,0-3.92,0-.5,0-.79.07-.76.68,0,1,0,2,0,3,0,.45.16.62.62.61q3.87,0,7.74,0c.47,0,.64-.18.6-.63a2,2,0,0,0,0-.21c-.67-3,1.08-5.13,2.87-7.21a.84.84,0,0,1,.7-.4,58.67,58.67,0,0,1,7,.18c3.49.53,5.28,2.78,5.15,6.46-.12,3.5-2.09,5.6-5.57,5.84-1.44.1-2.9.06-4.34,0-.55,0-.74.16-.73.72,0,1.2,0,2.4,0,3.6,0,.56-.1.83-.74.81-1.2,0-2.4,0-3.6,0-.65,0-.75-.25-.74-.81,0-1.2,0-2.4,0-3.6,0-.56-.18-.72-.73-.72q-3.76,0-7.53,0c-.57,0-.72.21-.71.74,0,1.24,0,2.47,0,3.71,0,.5-.15.69-.66.68-1.24,0-2.47,0-3.71,0-.57,0-.72-.19-.71-.73,0-1.2,0-2.4,0-3.6,0-.59-.14-.83-.76-.79-1.19.06-2.74-.39-3.49.2S21,21.93,21,23.12c-.06,1.72.24,1.5-1.54,1.48-1.15,0-2.65.51-3.36-.22s-.16-2.15-.18-3.27c0-1.6,0-1.63-1.65-1.6-1.37,0-3-.48-4.05.2S8.55,21.77,7.94,23a2.73,2.73,0,0,1-3.1,1.68A31.59,31.59,0,0,0,1.18,24.61ZM44.56,13.27c0,.53,0,1.06,0,1.58s.12.77.7.74a19.71,19.71,0,0,0,2.95-.15,1.87,1.87,0,0,0,1.7-2c0-1.37-.44-2.08-1.62-2.34A7.24,7.24,0,0,0,46.92,11C44.56,10.9,44.56,10.9,44.56,13.27ZM15.9,11.16l-.21-.1L12.86,15.4c.92,0,1.6,0,2.26,0s.81-.15.79-.77C15.87,13.48,15.9,12.32,15.9,11.16Z"/><path class="cls-1" d="M72.16,23.08c-.52-2.05.44-3.35,2.49-3.35l.14.1v-.25L75,18a3.18,3.18,0,0,1-2.39-.41h0a4.11,4.11,0,0,1-.21-3.4h0c.83-.32,1.55-1,2.59-.58-.05-.53-.12-.94-.13-1.35s-.09-.38-.41-.43c-1.95-.27-2.58-1.1-2.35-3,0,0-.08-.11-.12-.16h0c.28.13.32,0,.23-.23h0c.61,0,1.19-.41,1.82-.12l.24.06-.08-.22c-.22-.37.17-1.1-.53-1.15s-1.08-.42-1.66-.5l0,0c0-.18-.08-.23-.23-.23l0,0a.2.2,0,0,0-.23-.23h0a2.29,2.29,0,0,1-.22-1.48,3,3,0,0,1,2.09,0C73.21,3,71.92,3.8,71.16,3.37c.54.41.18.85.15,1.26l-1.92,0h0c0-.29-.18-.37-.44-.22l0,0c.1-.25-.06-.24-.23-.23l0,0c0-.18,0-.28-.23-.23h0V3.13h0c.68-.57,2,.3,2.35-1.09,0-.05.4,0,.6,0s.48.18.68-.21c-.45-.27-1.18-.56-1.39-.27-.62.86-1.3.41-2,.29-.27,0-.58-.2-.5-.56s.38-.26.62-.29c.4-.05,1,.33,1.11-.41v0c1.07.09,2.19,0,3.16.74l-.58.2c2.72.08,4.38,1.82,6,3.59a15.38,15.38,0,0,1,3.94,8.29C83.4,20,80.62,25,75.65,29c-.64.51-1.34,1.2-2.35.86-.06,0-.17,0-.19,0-.78,1.62-2.63.51-3.68,1.44a.48.48,0,0,1-.64-.05c.22-.51.91-.09,1.21-.77a9.56,9.56,0,0,0-2,.36c-1,.36-2.12,1-3.33.47.32-.62,1.53.51,1.35-.84l0,0a11.43,11.43,0,0,1,1.75,0c.62.09.6-.26.61-.66h0c.15,0,.35,0,.23-.23h0c.42.22.79-.11,1.2-.09s.88-.13.94.51l-.13.11h.09v-.14c.6,0,1.24.11,1.73-.55-.69-.2-1.56.47-1.72-.33s-.32-.57-.77-.53a7,7,0,0,1-1.14-.08h0c-.11-.76-.41-1.2-1.32-1.13a1.07,1.07,0,0,1-1.27-1c0-.75.62-.95,1.22-1.11a1.72,1.72,0,0,1,1.76.44c.42.42.2.84-.18,1.26.73.13,1.37-.33,2-.07.24.09.35-.05.29-.26-.14-.49.21-.87.24-1.32h0q.29.07.23-.23l0,0c.18,0,.31,0,.23-.23h0c.87-.37,2.23,0,2.23-1.61l.06-.23-.22.08a3.28,3.28,0,0,1-1.85-.16Zm1,4.87c.39.21,0,.58.18.86a5.89,5.89,0,0,1,.9-.19c.33,0,.43-.18.39-.46s-.3-.18-.47-.16c-.34,0-.68.17-1,0-.07-.32.3-.89-.37-.86s-1.74-.36-1.51,1.08A8.23,8.23,0,0,1,73.2,27.95Zm1-1.68c.57-.06,1-.47,1.57-.15a.47.47,0,0,1,.18.56s0,0-.06.07c.08-.26.37-.1.52-.25s.53.1.59-.4c-.71.06-1.38,0-1-1C75.14,25.19,74.27,25.1,74.18,26.27ZM76.3,11.18a.47.47,0,0,0,.55-.51A1,1,0,0,0,76,9.6a.47.47,0,0,0-.59.54A1.12,1.12,0,0,0,76.3,11.18Zm.56,9.7c0-.37-.12-.61-.48-.58a1,1,0,0,0-1,1c0,.32.21.51.55.47A.94.94,0,0,0,76.85,20.87Zm-1-14.45c.14-1.53-1.27-.57-1.69-1.21C74.25,6.45,75.11,6.36,75.9,6.42ZM73.31,2.78c0,.83.61.73,1.09.77s.19-.47.43-.6c-.14-.23-.28,0-.43,0C74.06,2.87,73.72,2.84,73.31,2.78Zm6,16.29a.78.78,0,0,0,.58-.77c0-.24,0-.54-.37-.5s-.53.4-.57.75S79,19,79.33,19.06Zm.29-5.29a.46.46,0,0,0,.28-.57c-.09-.34-.2-.71-.62-.71s-.34.3-.3.55A.77.77,0,0,0,79.62,13.77ZM77.73,23.3a.93.93,0,0,0,.65-.85c0-.25-.19-.29-.36-.24a.91.91,0,0,0-.63.78C77.35,23.2,77.48,23.32,77.73,23.3Zm0-15.16c-.24,0-.3.14-.27.33a.93.93,0,0,0,.63.77A.23.23,0,0,0,78.38,9,1,1,0,0,0,77.69,8.14ZM81.23,20.2c0-.21,0-.4-.24-.36s-.38.37-.48.63-.06.41.17.39S81.12,20.47,81.23,20.2Zm0-8.75a.91.91,0,0,0-.51-.73.2.2,0,0,0-.24.25c.08.3.15.64.5.75C81.15,11.77,81.22,11.61,81.24,11.45Z"/><path class="cls-1" d="M67.85,13.72a2.13,2.13,0,0,1,2.15,2,2.15,2.15,0,0,1-2.1,2.09,2.06,2.06,0,0,1,0-4.12Z"/><path class="cls-1" d="M69.39,11.2c1.76-.7,2.94-.26,3.32,1.18.18.68-.23,1.19-.36,1.79h0c-1.65.49-2.54.16-3.08-1-.31-.69,0-1.3.11-1.93Z"/><path class="cls-1" d="M69.61,20.53c-.74-1.5-.45-2.64.77-3.27.84-.44,1.48.13,2.2.3h0c-.19.16,0,.32,0,.47A2,2,0,0,1,70,20.59a2.1,2.1,0,0,0-.4-.08Z"/><path class="cls-1" d="M69.4,11.19c-.38-.38-.69.06-1,.1A2,2,0,0,1,66.1,10a1.4,1.4,0,0,1,1-1.76,2.07,2.07,0,0,1,2.56.88,1.46,1.46,0,0,1,0,1.42c-.1.2-.51.34-.2.67Z"/><path class="cls-1" d="M69.6,20.52c-.32.15-.11.34,0,.5a1.51,1.51,0,0,1-.67,2.15,2,2,0,0,1-2.5-.31,1.36,1.36,0,0,1-.09-1.75,2.17,2.17,0,0,1,2.43-.76c.28.08.49.63.87.17Z"/><path class="cls-1" d="M64.38,14.44a1.55,1.55,0,0,1-1.59-1.6,1.85,1.85,0,0,1,1.86-1.77,1.56,1.56,0,0,1,1.59,1.61A1.82,1.82,0,0,1,64.38,14.44Z"/><path class="cls-1" d="M66.23,18.9a1.55,1.55,0,0,1-1.6,1.58,1.82,1.82,0,0,1-1.84-1.78,1.53,1.53,0,0,1,1.61-1.57A1.8,1.8,0,0,1,66.23,18.9Z"/><path class="cls-1" d="M63,15.78a1.52,1.52,0,0,1-1.5,1.59A1.57,1.57,0,0,1,60,15.83a1.61,1.61,0,0,1,1.46-1.65A1.56,1.56,0,0,1,63,15.78Z"/><path class="cls-1" d="M71.94,8.64a2.59,2.59,0,0,1-2.39-.38A1.28,1.28,0,0,1,69,6.68c.27-.6.85-.65,1.44-.65.35,0,.67.42,1,.07h0c-.14.29,0,.31.23.23l0,0c-.1.25,0,.29.23.23l0,0c.16.63.52,1.24.21,1.92h0q-.28,0-.23.23Z"/><path class="cls-1" d="M71.52,25.4c-.35-.33-.64.07-1,.1A1.33,1.33,0,0,1,69,24.85c-.3-.64.06-1.15.55-1.56a2.48,2.48,0,0,1,2.57-.21h0A2.9,2.9,0,0,1,71.93,25h0c-.2,0-.31,0-.23.23l0,0c-.21-.06-.37-.07-.23.23Z"/><path class="cls-1" d="M61.84,8.94a1.1,1.1,0,0,1,1.09,1.15,1.8,1.8,0,0,1-1.81,1.59,1,1,0,0,1-1.05-1.08A1.8,1.8,0,0,1,61.84,8.94Z"/><path class="cls-1" d="M61,19.89a1.81,1.81,0,0,1,1.89,1.62,1,1,0,0,1-1.15,1.09A1.74,1.74,0,0,1,60.07,21,1,1,0,0,1,61,19.89Z"/><path class="cls-1" d="M69.39,4.61a1.59,1.59,0,0,1-2.54,1.45,1,1,0,0,1-.69-1c0-.5.42-.68.8-.89s1.1.13,1.6-.2h0c-.13.28.07.23.23.23l0,0c0,.19.09.21.23.23l0,0c.1.17.16.42.44.22Z"/><path class="cls-1" d="M64.46,8.61a1.16,1.16,0,0,1-1.17-1.1c0-.68.78-1.28,1.67-1.26.7,0,1.26.26,1.28,1.07S65.45,8.63,64.46,8.61Z"/><path class="cls-1" d="M65.06,25.3c-1,0-1.84-.64-1.76-1.31a1.14,1.14,0,0,1,1.36-1c.78,0,1.51.35,1.56,1.25S65.6,25.22,65.06,25.3Z"/><path class="cls-1" d="M61.15,24.67c.89,0,1.76.72,1.69,1.28s-.51.63-.94.63c-.78,0-1.67-.71-1.59-1.27S60.8,24.68,61.15,24.67Z"/><path class="cls-1" d="M61.2,6.91c-.39-.05-1-.11-.88-.72.1-.81.78-1.12,1.52-1.2.47-.05.95,0,1,.64S62,6.88,61.2,6.91Z"/><path class="cls-1" d="M64.63,4.58c-.48-.07-1.11-.11-1.07-.65C63.61,3.15,64.37,3,65,3c.43,0,1.07.07,1,.64C66,4.48,65.21,4.46,64.63,4.58Z"/><path class="cls-1" d="M64.91,28.56c-.59-.11-1.32-.2-1.33-.92s.67-.61,1.16-.59,1.24.11,1.27.81S65.39,28.49,64.91,28.56Z"/><path class="cls-1" d="M68.34,29.86c-.56-.21-1.16.14-1.71-.13-.22-.11-.47-.19-.49-.48s.22-.4.44-.52c.71-.38,1.46-.07,2.18-.14h0c0,.36.12.77-.22,1.07h0c-.13,0-.34,0-.23.23Z"/><path class="cls-1" d="M59.14,7.23c.41.06.72.27.64.68a1.44,1.44,0,0,1-1.34,1.26.55.55,0,0,1-.62-.66A1.5,1.5,0,0,1,59.14,7.23Z"/><path class="cls-1" d="M68.55,3.13c-.57-.3-1.2.08-1.79-.18s-.78-.52-.54-1.09h0c.49,0,.93-.24,1.45-.14,1.07.2,1.26.47.88,1.42Z"/><path class="cls-1" d="M59.79,23.66a.65.65,0,0,1-.68.66A1.52,1.52,0,0,1,57.82,23a.57.57,0,0,1,.71-.58A1.51,1.51,0,0,1,59.79,23.66Z"/><path class="cls-1" d="M61.32,2.3c.56.34,1-.35,1.51-.23.29.07.69-.05.76.36s-.26.46-.5.6c-1,.53-1.56.29-1.76-.73Z"/><path class="cls-1" d="M59.37,26.29c.55.17,1.11.34,1.27,1,.06.26-.18.4-.39.38a1.33,1.33,0,0,1-1.31-.89C58.84,26.43,59.13,26.36,59.37,26.29Z"/><path class="cls-1" d="M60.18,3.91c.29,0,.58.1.47.41a1.37,1.37,0,0,1-1.28.91c-.26,0-.54-.09-.44-.41A1.34,1.34,0,0,1,60.18,3.91Z"/><path class="cls-1" d="M62.78,29.47c-.54-.08-1.2-.14-1.31-.8-.07-.41.45-.33.74-.31.57,0,1.22.13,1.34.77C63.62,29.52,63.1,29.43,62.78,29.47Z"/><path class="cls-1" d="M66.22,1.86c-.49-.31-1,.13-1.47,0s-.82-.06-.65-.66h0c.13,0,.31,0,.23-.23V1H66l0,0c.25.24-.12.64.22.86Z"/><path class="cls-1" d="M63.88,30.29c.33-.74.93-.66,1.55-.53.39.09.75.22.55.75l0,0H64.08l0,0c.12-.27,0-.29-.22-.23Z"/><path class="cls-1" d="M60.07,29.57c0-.2-.2-.57.27-.48a1.82,1.82,0,0,1,1.31.81l-2-.18a.78.78,0,0,1-.19-.07c0,.24.15.17.29.13.07.13.16.22.31.13S60.15,29.69,60.07,29.57Z"/><path class="cls-1" d="M66,1c0-.46.09-.76.69-.64a5.94,5.94,0,0,0,1.22,0v0c.25.35.45.69-.24.7S66.54,1,66,1Z"/><path class="cls-1" d="M57.57,27.42c.07-.07.09-.11.12-.11A1.28,1.28,0,0,1,59,28a.18.18,0,0,1-.14.31A1.54,1.54,0,0,1,57.57,27.42Z"/><path class="cls-1" d="M57.63,4.32c0-.1-.06-.14,0-.17a1.39,1.39,0,0,1,1.31-.87s.17.18.15.22A1.45,1.45,0,0,1,57.63,4.32Z"/><path class="cls-1" d="M64.1,1.23c-.54-.35-1.1.28-1.65,0q1-1.1,1.84-.17V1c-.19,0-.36-.05-.23.23Z"/><path class="cls-1" d="M67.91.39C68.69-.31,69.37,0,70,.6v0L67.89.37Z"/><path class="cls-1" d="M64.08,30.48c.1.38-.05.52-.42.46s-.91,0-1.23-.51c.48-.4,1,.19,1.46-.14h0c-.12.26.09.21.22.23Z"/><path class="cls-1" d="M61.33,2.29c-.44-.2-.81.42-1.31.06a1.12,1.12,0,0,1,1.36-.63c.34.09-.19.36-.07.59Z"/><path class="cls-1" d="M69.4,4.62c-.28.2-.34-.05-.44-.22C69.21,4.25,69.35,4.34,69.4,4.62Z"/><path class="cls-1" d="M74.8,19.58v.25l-.14-.1Z"/><path class="cls-1" d="M71.5,25.41c-.14-.29,0-.28.23-.23Q71.8,25.48,71.5,25.41Z"/><path class="cls-1" d="M68.76,4.2c-.16,0-.35,0-.23-.23C68.74,3.93,68.79,4,68.76,4.2Z"/><path class="cls-1" d="M64.09,30.5c-.13,0-.34,0-.22-.23C64.08,30.22,64.21,30.24,64.09,30.5Z"/></g></g></svg>
