<svg id="Calque_1" data-name="Calque 1" xmlns="http://www.w3.org/2000/svg" viewBox="0 0 616.04 230.52"><defs><style>.cls-1{fill:none;stroke:#000;stroke-miterlimit:10;}</style></defs><title>Plan de travail 1</title><path d="M33.78,3.38v98.56H2.88V3.38Z"/><path class="cls-1" d="M147.79,101.94H116.88L84.17,52.38v49.56H53.27V3.38h30.9l32.71,50.39V3.38h30.91Z"/><path d="M244.67,3.38v24.5H218.5v74.06H187.6V27.88H161.71V3.38Z"/><path d="M289.5,3.38v98.56H258.59V3.38Z"/><path class="cls-1" d="M379.74,37.47v64.47H359.61V69.79l-9.92,32.15h-17.3l-9.93-32.15v32.15H302.24V37.47H327l14.21,38.7,13.84-38.7Z"/><path d="M412.7,37.47v64.47H392.49V37.47Z"/><path class="cls-1" d="M476.08,37.47v16H459v48.45H438.75V53.49H421.81v-16Z"/><path class="cls-1" d="M505.4,53.49v8h20v15.2h-20v9.11h22.77v16.12h-43V37.47h43v16Zm13.12-28L494.93,34V20.53l23.59-10Z"/><path class="cls-1" d="M87.4,167.11V187.6H67.18V123.13H95.41q11.84,0,18.17,6t6.33,16.12a22,22,0,0,1-2.82,11.06,20.13,20.13,0,0,1-8.34,7.88,28.24,28.24,0,0,1-13.34,2.91Zm12-21.85q0-5.92-6.28-5.92H87.4v11.84h5.74Q99.43,151.18,99.42,145.26Z"/><path d="M149.69,123.13v36.33a11.49,11.49,0,0,0,1.95,7.06q2,2.59,6.33,2.6c2.92,0,5.07-.87,6.47-2.6a11,11,0,0,0,2.09-7.06V123.13h20.13v36.33a30.48,30.48,0,0,1-3.83,15.71A24.47,24.47,0,0,1,172.36,185a33,33,0,0,1-14.84,3.28A31.08,31.08,0,0,1,143,185a23.31,23.31,0,0,1-9.88-9.74q-3.56-6.47-3.55-15.76V123.13Z"/><path class="cls-1" d="M251.26,160.15a15.65,15.65,0,0,1,3.24,9.79q0,8.46-5.6,13.06t-16.08,4.6H199V123.13h32.87q9.84,0,15.48,4.28T253,139.89a15.21,15.21,0,0,1-3,9.51,14,14,0,0,1-7.88,5.15A15.3,15.3,0,0,1,251.26,160.15Zm-32-11.89h7.83a6.26,6.26,0,0,0,4-1.09,4.12,4.12,0,0,0,1.32-3.37,4.37,4.37,0,0,0-1.32-3.5,6.08,6.08,0,0,0-4-1.14h-7.83Zm13.25,22.09a4.11,4.11,0,0,0,1.32-3.42c0-3.1-1.79-4.64-5.38-4.64h-9.19v9.1h9.19A6.53,6.53,0,0,0,232.51,170.35Z"/><path d="M285.18,172.3h19.49v15.3H265V123.13h20.21Z"/><path d="M334.9,123.13V187.6H314.69V123.13Z"/><path class="cls-1" d="M407,227.07,398.41,213a38.76,38.76,0,0,1-6.67.51,46.17,46.17,0,0,1-23.08-5.92A44.26,44.26,0,0,1,352,191.22a48,48,0,0,1,0-47,43.82,43.82,0,0,1,16.67-16.29,48.34,48.34,0,0,1,46.1,0,43.41,43.41,0,0,1,16.54,16.29,45.73,45.73,0,0,1,6.11,23.52,46.32,46.32,0,0,1-4.16,19.68,44.46,44.46,0,0,1-11.44,15.29l18.11,24.4Zm-28.17-45q4.53,5.35,12.95,5.35t12.83-5.35q4.53-5.34,4.53-14.4t-4.53-14.53q-4.51-5.34-12.83-5.35t-12.95,5.35q-4.53,5.36-4.53,14.53T378.79,182.1Z"/><path d="M479.8,123.55v50.19q0,6.16,2.7,9.74t8.74,3.59q6,0,8.93-3.59t2.9-9.74V123.55h27.8v50.19q0,12.7-5.29,21.7A33.85,33.85,0,0,1,511.12,209a45.76,45.76,0,0,1-20.51,4.53A43,43,0,0,1,470.55,209,32.27,32.27,0,0,1,456.9,195.5q-4.9-8.94-4.9-21.76V123.55Z"/><path d="M575.9,145.69v11.06h27.67v21H575.9v12.58h31.44v22.27H548V123.55h59.37v22.14Z"/></svg>