<?xml version="1.0" encoding="utf-8"?>
<!-- Generator: Adobe Illustrator 17.0.0, SVG Export Plug-In . SVG Version: 6.00 Build 0)  -->
<!DOCTYPE svg PUBLIC "-//W3C//DTD SVG 1.1//EN" "http://www.w3.org/Graphics/SVG/1.1/DTD/svg11.dtd">
<svg version="1.1" id="Calque_1" xmlns="http://www.w3.org/2000/svg" xmlns:xlink="http://www.w3.org/1999/xlink" x="0px" y="0px"
	 width="235.057px" height="90.866px" viewBox="0 0 235.057 90.866" enable-background="new 0 0 235.057 90.866"
	 xml:space="preserve">
<g>
	<path fill="#010101" d="M4.217,15.196h4.065v3.191H0V4.938h4.217V15.196z"/>
	<path fill="none" stroke="#010101" stroke-miterlimit="10" d="M13.83,8.281v1.672h4.179v3.172H13.83v1.9h4.749v3.363H9.612V4.938
		h8.967v3.343H13.83z"/>
	<path fill="#010101" d="M39.412,13.832c-0.777,1.399-1.887,2.5-3.328,3.303c-1.442,0.803-3.121,1.205-5.038,1.205h-7.641V0h7.641
		c1.917,0,3.596,0.389,5.038,1.166c1.442,0.777,2.551,1.856,3.328,3.238c0.777,1.382,1.166,2.953,1.166,4.714
		C40.578,10.862,40.189,12.433,39.412,13.832z M33.61,12.148c0.76-0.708,1.14-1.718,1.14-3.031c0-1.312-0.38-2.322-1.14-3.031
		c-0.76-0.708-1.787-1.062-3.082-1.062h-1.373v8.185h1.373C31.823,13.21,32.85,12.857,33.61,12.148z"/>
	<path fill="#010101" d="M56.327,0.894c1.433,0.803,2.568,1.921,3.406,3.354c0.837,1.434,1.256,3.048,1.256,4.844
		c0,1.796-0.419,3.411-1.256,4.844c-0.838,1.434-1.978,2.556-3.419,3.367c-1.442,0.812-3.018,1.217-4.727,1.217
		c-1.727,0-3.312-0.406-4.753-1.217c-1.442-0.812-2.586-1.934-3.432-3.367c-0.846-1.433-1.269-3.048-1.269-4.844
		c0-1.796,0.423-3.41,1.269-4.844c0.846-1.433,1.99-2.551,3.432-3.354c1.442-0.803,3.026-1.204,4.753-1.204
		C53.313-0.311,54.893,0.091,56.327,0.894z M48.918,6.1c-0.622,0.734-0.932,1.731-0.932,2.992c0,1.243,0.311,2.232,0.932,2.966
		c0.622,0.734,1.511,1.101,2.668,1.101c1.14,0,2.02-0.367,2.642-1.101c0.622-0.734,0.932-1.723,0.932-2.966
		c0-1.26-0.311-2.258-0.932-2.992c-0.622-0.734-1.502-1.101-2.642-1.101C50.429,4.999,49.54,5.366,48.918,6.1z"/>
	<path fill="none" stroke="#010101" stroke-miterlimit="10" d="M75.87,0.712c1.252,0.596,2.271,1.438,3.057,2.526
		c0.786,1.088,1.308,2.357,1.567,3.808h-6.061c-0.276-0.604-0.669-1.075-1.179-1.412c-0.51-0.337-1.092-0.505-1.749-0.505
		c-0.967,0-1.731,0.363-2.292,1.088c-0.561,0.725-0.842,1.701-0.842,2.927c0,1.226,0.281,2.202,0.842,2.927
		c0.561,0.725,1.325,1.088,2.292,1.088c0.656,0,1.239-0.168,1.749-0.505c0.509-0.337,0.902-0.807,1.179-1.412h6.061
		c-0.259,1.451-0.782,2.72-1.567,3.808c-0.786,1.088-1.805,1.93-3.057,2.526c-1.252,0.596-2.672,0.894-4.261,0.894
		c-1.848,0-3.454-0.393-4.818-1.179c-1.364-0.786-2.413-1.886-3.147-3.303c-0.734-1.416-1.101-3.031-1.101-4.844
		c0-1.813,0.367-3.428,1.101-4.844c0.734-1.416,1.783-2.517,3.147-3.303c1.364-0.786,2.97-1.179,4.818-1.179
		C73.197-0.181,74.618,0.117,75.87,0.712z"/>
	<path fill="none" stroke="#010101" stroke-miterlimit="10" d="M88.186,0v10.335c0,0.846,0.185,1.515,0.557,2.008
		c0.371,0.492,0.971,0.738,1.8,0.738c0.829,0,1.442-0.246,1.839-0.738c0.397-0.492,0.596-1.161,0.596-2.008V0h5.724v10.335
		c0,1.744-0.363,3.234-1.088,4.468c-0.725,1.235-1.718,2.163-2.979,2.785c-1.261,0.622-2.668,0.932-4.222,0.932
		c-1.554,0-2.932-0.311-4.131-0.932c-1.201-0.622-2.137-1.545-2.81-2.772c-0.673-1.226-1.01-2.72-1.01-4.481V0H88.186z"/>
	<path fill="#010101" d="M123.233,0v18.339h-5.725V9.195l-2.823,9.144h-4.921l-2.823-9.144v9.144h-5.75V0h7.046l4.041,11.009
		L116.213,0H123.233z"/>
	<path fill="#010101" d="M131.573,4.559v2.279h5.699v4.326h-5.699v2.59h6.476v4.585h-12.226V0h12.226v4.559H131.573z"/>
	<path fill="none" stroke="#010101" stroke-miterlimit="10" d="M157.813,18.339h-5.751l-6.087-9.221v9.221h-5.75V0h5.75l6.087,9.377
		V0h5.751V18.339z"/>
	<path fill="#010101" d="M174.804,0v4.559h-4.87v13.78h-5.751V4.559h-4.818V0H174.804z"/>
	<path fill="#010101" d="M188.118,15.568h-6.113l-0.907,2.772h-6.035L181.772,0h6.631l6.683,18.339h-6.061L188.118,15.568z
		 M186.72,11.242l-1.658-5.103l-1.658,5.103H186.72z"/>
	<path fill="none" stroke="#010101" stroke-miterlimit="10" d="M202.132,0v18.339h-5.75V0H202.132z"/>
	<path fill="#010101" d="M213.943,18.339l-3.471-6.579v6.579h-5.75V0h8.548c1.485,0,2.754,0.263,3.808,0.79
		c1.053,0.527,1.843,1.243,2.37,2.15c0.527,0.907,0.79,1.93,0.79,3.069c0,1.226-0.341,2.314-1.023,3.264
		c-0.682,0.95-1.662,1.632-2.94,2.046l3.989,7.02H213.943z M210.472,7.926h2.279c0.553,0,0.967-0.125,1.243-0.376
		c0.276-0.25,0.414-0.643,0.414-1.179c0-0.483-0.142-0.863-0.427-1.14c-0.285-0.276-0.695-0.414-1.231-0.414h-2.279V7.926z"/>
	<path fill="#010101" d="M227.827,4.559v2.279h5.699v4.326h-5.699v2.59h6.476v4.585h-12.226V0h12.226v4.559H227.827z"/>
	<path fill="none" stroke="#010101" stroke-miterlimit="10" d="M33.981,50.924l-1.292-2.128c-0.291,0.05-0.627,0.076-1.007,0.076
		c-1.267,0-2.429-0.297-3.486-0.893c-1.058-0.595-1.897-1.418-2.517-2.47c-0.621-1.051-0.931-2.235-0.931-3.552
		c0-1.317,0.31-2.501,0.931-3.552c0.62-1.051,1.46-1.871,2.517-2.46c1.057-0.589,2.219-0.883,3.486-0.883
		c1.266,0,2.425,0.294,3.476,0.883c1.051,0.589,1.884,1.409,2.498,2.46c0.614,1.051,0.921,2.235,0.921,3.552
		c0,1.077-0.209,2.068-0.627,2.973c-0.418,0.906-0.994,1.675-1.729,2.308l2.736,3.685H33.981z M29.726,44.132
		c0.456,0.538,1.108,0.807,1.957,0.807c0.836,0,1.482-0.269,1.938-0.807c0.456-0.538,0.684-1.263,0.684-2.175
		c0-0.924-0.228-1.656-0.684-2.194c-0.456-0.538-1.102-0.807-1.938-0.807c-0.849,0-1.501,0.269-1.957,0.807
		c-0.456,0.538-0.684,1.27-0.684,2.194C29.042,42.869,29.27,43.594,29.726,44.132z"/>
	<path fill="none" stroke="#010101" stroke-miterlimit="10" d="M44.221,35.289v7.58c0,0.621,0.136,1.111,0.408,1.472
		c0.272,0.361,0.712,0.541,1.32,0.541c0.608,0,1.057-0.18,1.349-0.541c0.291-0.361,0.437-0.852,0.437-1.472v-7.58h4.198v7.58
		c0,1.279-0.266,2.372-0.798,3.277c-0.532,0.906-1.26,1.586-2.185,2.042c-0.925,0.456-1.957,0.684-3.096,0.684
		c-1.14,0-2.15-0.228-3.03-0.684c-0.88-0.456-1.567-1.133-2.061-2.033c-0.494-0.899-0.741-1.995-0.741-3.287v-7.58H44.221z"/>
	<path fill="none" stroke="#010101" stroke-miterlimit="10" d="M57.975,35.289v13.45h-4.217v-13.45H57.975z"/>
	<path fill="#010101" d="M81.512,42.992c-0.894,1.609-2.17,2.875-3.828,3.798c-1.658,0.923-3.59,1.385-5.794,1.385h-8.787v-21.09
		h8.787c2.204,0,4.135,0.447,5.794,1.34c1.658,0.894,2.934,2.135,3.828,3.723c0.894,1.589,1.34,3.396,1.34,5.421
		C82.853,39.577,82.406,41.383,81.512,42.992z M74.84,41.056c0.874-0.814,1.311-1.976,1.311-3.485c0-1.509-0.437-2.671-1.311-3.485
		c-0.874-0.814-2.055-1.221-3.545-1.221h-1.579v9.413h1.579C72.785,42.277,73.966,41.87,74.84,41.056z"/>
	<path fill="#010101" d="M91.848,32.328v2.621h6.553v4.974h-6.553v2.979h7.447v5.272h-14.06v-21.09h14.06v5.243H91.848z
		 M96.138,23.153l-7.715,2.8v-4.409l7.715-3.277V23.153z"/>
	<path fill="none" stroke="#010101" stroke-miterlimit="10" d="M107.338,27.085l4.349,14.507l4.319-14.507h7.03l-7.09,21.09h-8.549
		l-7.09-21.09H107.338z"/>
	<path fill="none" stroke="#010101" stroke-miterlimit="10" d="M140.253,28.113c1.648,0.923,2.954,2.209,3.917,3.858
		c0.963,1.649,1.445,3.505,1.445,5.57c0,2.066-0.482,3.922-1.445,5.57c-0.963,1.649-2.274,2.939-3.932,3.872
		c-1.658,0.934-3.47,1.4-5.436,1.4c-1.986,0-3.808-0.466-5.466-1.4c-1.658-0.933-2.974-2.224-3.947-3.872
		c-0.973-1.648-1.46-3.505-1.46-5.57c0-2.065,0.486-3.922,1.46-5.57c0.973-1.648,2.289-2.934,3.947-3.858
		c1.658-0.923,3.48-1.385,5.466-1.385C136.787,26.728,138.604,27.19,140.253,28.113z M131.734,34.1
		c-0.715,0.844-1.072,1.991-1.072,3.44c0,1.43,0.357,2.567,1.072,3.411c0.715,0.844,1.737,1.266,3.068,1.266
		c1.311,0,2.323-0.422,3.038-1.266c0.715-0.844,1.072-1.981,1.072-3.411c0-1.449-0.357-2.596-1.072-3.44
		c-0.715-0.844-1.728-1.266-3.038-1.266C133.471,32.834,132.449,33.257,131.734,34.1z"/>
	<path fill="none" stroke="#010101" stroke-miterlimit="10" d="M154.611,27.085v21.09h-6.613v-21.09H154.611z"/>
	<path fill="none" stroke="#010101" stroke-miterlimit="10" d="M164.202,43.171h6.375v5.004h-12.987v-21.09h6.613V43.171z"/>
	<path fill="#010101" d="M179.274,32.328v2.621h6.553v4.974h-6.553v2.979h7.447v5.272h-14.06v-21.09h14.06v5.243H179.274z"/>
	<path fill="#010101" d="M94.56,53.129v9.289h-9.922v28.078H72.92V62.418h-9.817v-9.289H94.56z"/>
	<path fill="none" stroke="#010101" stroke-miterlimit="10" d="M208.814,53.129v9.289h-9.922v28.078h-11.717V62.418h-9.817v-9.289
		H208.814z"/>
	<path fill="#010101" d="M125.594,54.949c2.92,1.636,5.233,3.915,6.94,6.835c1.707,2.921,2.56,6.211,2.56,9.87
		c0,3.66-0.853,6.95-2.56,9.87c-1.707,2.921-4.029,5.208-6.967,6.861c-2.938,1.654-6.149,2.481-9.632,2.481
		c-3.519,0-6.748-0.826-9.685-2.481c-2.938-1.654-5.269-3.94-6.993-6.861c-1.725-2.92-2.586-6.21-2.586-9.87
		c0-3.659,0.862-6.949,2.586-9.87c1.723-2.92,4.054-5.199,6.993-6.835c2.937-1.636,6.166-2.454,9.685-2.454
		C119.454,52.495,122.673,53.313,125.594,54.949z M110.499,65.558c-1.267,1.496-1.9,3.528-1.9,6.096c0,2.533,0.633,4.548,1.9,6.043
		c1.267,1.496,3.078,2.243,5.436,2.243c2.322,0,4.117-0.747,5.383-2.243c1.267-1.495,1.9-3.51,1.9-6.043
		c0-2.568-0.633-4.6-1.9-6.096c-1.267-1.495-3.061-2.243-5.383-2.243C113.578,63.315,111.766,64.063,110.499,65.558z"/>
	<path fill="#010101" d="M150.77,53.129v21.059c0,1.725,0.378,3.088,1.135,4.091c0.756,1.003,1.979,1.504,3.668,1.504
		c1.689,0,2.937-0.501,3.748-1.504c0.809-1.003,1.214-2.366,1.214-4.091V53.129h11.664v21.059c0,3.555-0.739,6.589-2.217,9.104
		c-1.478,2.516-3.502,4.407-6.07,5.674c-2.569,1.267-5.436,1.9-8.603,1.9c-3.167,0-5.973-0.633-8.418-1.9
		c-2.446-1.267-4.354-3.149-5.727-5.647c-1.372-2.498-2.058-5.542-2.058-9.131V53.129H150.77z"/>
	<path fill="none" stroke="#010101" stroke-miterlimit="10" d="M235.057,50.648l-1.372,25.017h-10.028l-1.372-25.017H235.057z
		 M234.477,79.307v11.189h-11.611V79.307H234.477z"/>
</g>
</svg>
