<svg id="Calque_1" data-name="Calque 1" xmlns="http://www.w3.org/2000/svg" viewBox="0 0 636.04 218.02"><defs><style>.cls-1{fill:none;stroke:#000;}</style></defs><title>Plan de travail 1 copie</title><path d="M52.5,50.83a21.5,21.5,0,0,1,8.37,14.71H42a7,7,0,0,0-3-2.63A10.81,10.81,0,0,0,34.28,62a9.88,9.88,0,0,0-8,3.36q-2.84,3.34-2.83,9.17,0,6.7,3.15,10t9.7,3.31a12,12,0,0,0,10-5H32V70.14H61.19V88.08A34.42,34.42,0,0,1,50.93,99q-6.55,4.57-16.57,4.57a31.25,31.25,0,0,1-15.47-3.68,24.93,24.93,0,0,1-10.1-10.3A31.7,31.7,0,0,1,5.27,74.51,31.64,31.64,0,0,1,8.79,59.4,25,25,0,0,1,18.85,49.09,30.83,30.83,0,0,1,34.2,45.42Q45.43,45.42,52.5,50.83Z"/><path class="cls-1" d="M88.83,60.2v7.12H106.6V80.81H88.83v8.08H109V103.2H70.89V46H109V60.2Zm11.63-24.88L79.53,42.91V31l20.93-8.89Z"/><path d="M173.92,103.2H156L137,74.43V103.2H119.05V46H137l19,29.25V46h17.94Z"/><path d="M203.17,60.2v7.12H221V80.81H203.17v8.08h20.2V103.2H185.23V46h38.14V60.2Zm11.64-24.88-20.93,7.59V31l20.93-8.89Z"/><path class="cls-1" d="M287.59,102.78,268.78,67.11v35.67H237.6V3.35h46.34q12.07,0,20.65,4.29a29.77,29.77,0,0,1,12.85,11.65,32.57,32.57,0,0,1,4.28,16.64,29.56,29.56,0,0,1-5.55,17.7q-5.55,7.73-15.94,11.09l21.63,38.06ZM268.78,46.32h12.35c3,0,5.25-.67,6.74-2s2.25-3.49,2.25-6.39a8.2,8.2,0,0,0-2.32-6.18c-1.54-1.5-3.77-2.25-6.67-2.25H268.78Z"/><path d="M368.48,28.07V40.43h30.9V63.88h-30.9v14h35.11v24.86H337.31V3.35h66.28V28.07Z"/><path d="M451.48,3.35v56q0,6.88,3,10.89t9.76,4q6.74,0,10-4t3.23-10.89v-56h31v56q0,14.19-5.9,24.23a37.75,37.75,0,0,1-16.15,15.1,51,51,0,0,1-22.89,5.05,48,48,0,0,1-22.4-5.05,36,36,0,0,1-15.23-15q-5.48-10-5.48-24.3v-56Z"/><path class="cls-1" d="M590.93,102.78,572.67,76.94,557.5,102.78H522l32.72-51.26L520.57,3.35H557.5l17.56,24.86,14.6-24.86h35.53L593,53.63l34.83,49.15Z"/><path d="M36.44,183.73v31.59H5.27v-99.4H48.79q18.26,0,28,9.27T86.55,150a33.87,33.87,0,0,1-4.35,17.05,31,31,0,0,1-12.84,12.15q-8.51,4.48-20.57,4.49ZM55,150q0-9.14-9.69-9.13H36.44v18.25h8.84Q55,159.16,55,150Z"/><path class="cls-1" d="M152,215.32l-18.82-35.66v35.66H102v-99.4h46.33q12.06,0,20.63,4.28a29.83,29.83,0,0,1,12.85,11.65,32.57,32.57,0,0,1,4.28,16.64,29.53,29.53,0,0,1-5.55,17.69q-5.53,7.73-15.93,11.09l21.62,38Zm-18.82-56.44h12.36q4.48,0,6.74-2t2.24-6.38a8.23,8.23,0,0,0-2.31-6.18q-2.33-2.25-6.67-2.25H133.16Z"/><path class="cls-1" d="M275.8,120.76a48.67,48.67,0,0,1,18.46,18.18,54,54,0,0,1,0,52.51,48.9,48.9,0,0,1-18.53,18.25,53.32,53.32,0,0,1-51.39,0,49.44,49.44,0,0,1-18.6-18.25,53.54,53.54,0,0,1,0-52.51,49,49,0,0,1,18.6-18.18,54,54,0,0,1,51.46,0ZM235.65,149q-5.06,6-5.06,16.22t5.06,16.07q5.06,6,14.46,6,9.25,0,14.32-6t5.05-16.07q0-10.24-5.05-16.22t-14.32-6Q240.69,143,235.65,149Z"/><path d="M347.36,115.13v13.14H326.6v7.32h14.94v12.47H326.6V168H310V115.13Z"/><path d="M372.52,115.13V168H356V115.13Z"/><path class="cls-1" d="M424.49,115.13v13.14h-14V168H393.88V128.27H380V115.13Z"/><path class="cls-1" d="M448.53,128.27v6.57H465v12.47H448.53v7.47H467.2V168H432V115.13H467.2v13.14Z"/><path d="M492.66,115.13v29.8a9.4,9.4,0,0,0,1.61,5.78q1.61,2.13,5.19,2.13a6.41,6.41,0,0,0,5.3-2.13,9,9,0,0,0,1.72-5.78v-29.8H523v29.8a25,25,0,0,1-3.14,12.88,20.08,20.08,0,0,1-8.59,8,27.16,27.16,0,0,1-12.17,2.69,25.55,25.55,0,0,1-11.91-2.69,19.09,19.09,0,0,1-8.1-8,26.49,26.49,0,0,1-2.91-12.91v-29.8Z"/><path class="cls-1" d="M559.71,168l-10-19v19H533.13V115.13h24.64a24.33,24.33,0,0,1,11,2.28,15.83,15.83,0,0,1,6.83,6.2,17.26,17.26,0,0,1,2.28,8.85,15.73,15.73,0,0,1-3,9.4,16.18,16.18,0,0,1-8.48,5.9L577.93,168Zm-10-30h6.57a5.18,5.18,0,0,0,3.58-1.08,5.2,5.2,0,0,0,0-6.68,4.91,4.91,0,0,0-3.55-1.2h-6.57Z"/><path d="M626.78,163.79a17.28,17.28,0,0,1-7.36,6.23,26.49,26.49,0,0,1-11.49,2.29q-10.21,0-16.84-4.78t-7.2-14h19q.4,4.91,4.35,4.9a3.3,3.3,0,0,0,2.21-.72,2.61,2.61,0,0,0,.84-2.09,3.54,3.54,0,0,0-2-3.18,41.47,41.47,0,0,0-6.63-2.69,61.45,61.45,0,0,1-9-3.62,18,18,0,0,1-6.23-5.46,17.55,17.55,0,0,1,.2-18.86,17.7,17.7,0,0,1,7.8-5.91,29.37,29.37,0,0,1,11.14-2q10.2,0,16.24,4.75t6.59,13.66H609.13c-.26-3-1.5-4.5-3.69-4.5a2.57,2.57,0,0,0-1.85.69,2.68,2.68,0,0,0-.73,2,3.45,3.45,0,0,0,2,3,41.16,41.16,0,0,0,6.4,2.69,69.49,69.49,0,0,1,9,3.82,18.65,18.65,0,0,1,6.27,5.55,15.35,15.35,0,0,1,2.69,9.36A16,16,0,0,1,626.78,163.79Z"/></svg>