<svg xmlns="http://www.w3.org/2000/svg" viewBox="0 0 279.52 130.82"><defs><style>.cls-1{fill:none;stroke:#000;}</style></defs><title>Fichier 1</title><g id="Calque_2" data-name="Calque 2"><g id="Dossier"><path d="M44.33,18.68h7.14v5.66H36.93V.5h7.41Z"/><path class="cls-1" d="M71,20.73H63.08l-1.17,3.6H54.14L62.78.5h8.54l8.61,23.84H72.13Zm-1.8-5.62L67,8.48l-2.14,6.63Z"/><path d="M49.94,63.59,45,54.22v9.37H36.93V37.48H49a11.81,11.81,0,0,1,5.37,1.12,7.77,7.77,0,0,1,3.34,3.06A8.6,8.6,0,0,1,58.82,46a7.81,7.81,0,0,1-1.44,4.65,7.94,7.94,0,0,1-4.15,2.91l5.63,10ZM45,48.77h3.22A2.52,2.52,0,0,0,50,48.23a2.59,2.59,0,0,0,0-3.3,2.38,2.38,0,0,0-1.74-.59H45Z"/><path d="M71.72,44v3.25h8v6.16h-8v3.69h9.14v6.53H63.6V37.48H80.85V44ZM77,32.61l-9.46,3.47V30.62L77,26.57Z"/><path class="cls-1" d="M94.23,55.29v8.3H86.12V37.48H97.44q4.75,0,7.29,2.43a8.62,8.62,0,0,1,2.54,6.53,9,9,0,0,1-1.13,4.48,8.11,8.11,0,0,1-3.34,3.19,11.23,11.23,0,0,1-5.35,1.18Zm4.82-8.85q0-2.4-2.52-2.4h-2.3v4.79h2.3Q99.05,48.84,99.05,46.44Z"/><path d="M120,37.48V52.19a4.67,4.67,0,0,0,.79,2.86,3,3,0,0,0,2.54,1.05,3.12,3.12,0,0,0,2.59-1.05,4.45,4.45,0,0,0,.84-2.86V37.48h8.08V52.19a12.44,12.44,0,0,1-1.53,6.36,9.86,9.86,0,0,1-4.2,4,13.19,13.19,0,0,1-6,1.33,12.4,12.4,0,0,1-5.83-1.33,9.4,9.4,0,0,1-4-3.95,13.18,13.18,0,0,1-1.43-6.38V37.48Z"/><path class="cls-1" d="M161.45,52.47a6.39,6.39,0,0,1,1.3,4,6.48,6.48,0,0,1-2.25,5.29A9.86,9.86,0,0,1,154,63.59H140.49V37.48h13.19a10,10,0,0,1,6.21,1.73,6,6,0,0,1,2.27,5.05A6.2,6.2,0,0,1,161,48.12a5.63,5.63,0,0,1-3.16,2.08A6.16,6.16,0,0,1,161.45,52.47ZM148.6,47.66h3.14a2.5,2.5,0,0,0,1.63-.44,1.68,1.68,0,0,0,.53-1.36,1.79,1.79,0,0,0-.53-1.42,2.43,2.43,0,0,0-1.63-.46H148.6Zm5.32,8.94a1.67,1.67,0,0,0,.53-1.38q0-1.88-2.16-1.88H148.6V57h3.69A2.58,2.58,0,0,0,153.92,56.6Z"/><path class="cls-1" d="M175.79,57.39h7.82v6.2H167.68V37.48h8.11Z"/><path d="M196.47,37.48V63.59h-8.11V37.48Z"/><path d="M219.35,67.83l-2.48-4.13a11.34,11.34,0,0,1-1.94.15,13.34,13.34,0,0,1-6.71-1.73,12.9,12.9,0,0,1-4.84-4.79,14.17,14.17,0,0,1,0-13.79,12.77,12.77,0,0,1,4.84-4.78,13.93,13.93,0,0,1,13.39,0,12.68,12.68,0,0,1,4.81,4.78,13.51,13.51,0,0,1,1.77,6.9A13.71,13.71,0,0,1,227,56.2a13.06,13.06,0,0,1-3.33,4.48l5.26,7.15Zm-8.19-13.18a5.26,5.26,0,0,0,7.49,0A6.36,6.36,0,0,0,220,50.42a6.42,6.42,0,0,0-1.32-4.26,5.26,5.26,0,0,0-7.49,0,6.42,6.42,0,0,0-1.32,4.26A6.36,6.36,0,0,0,211.16,54.65Z"/><path d="M241.24,37.48V52.19a4.67,4.67,0,0,0,.79,2.86,3,3,0,0,0,2.54,1.05,3.12,3.12,0,0,0,2.59-1.05,4.45,4.45,0,0,0,.84-2.86V37.48h8.08V52.19a12.44,12.44,0,0,1-1.53,6.36,9.86,9.86,0,0,1-4.2,4,13.19,13.19,0,0,1-6,1.33,12.4,12.4,0,0,1-5.83-1.33,9.4,9.4,0,0,1-4-3.95,13.18,13.18,0,0,1-1.43-6.38V37.48Z"/><path class="cls-1" d="M269.89,44v3.25h8v6.16h-8v3.69H279v6.53H261.78V37.48H279V44Z"/><path d="M27.57,94.95a14.51,14.51,0,0,1-5.73,5.74,17.41,17.41,0,0,1-8.68,2.09H0V70.91H13.16a17.88,17.88,0,0,1,8.68,2,14.15,14.15,0,0,1,5.73,5.63,16.54,16.54,0,0,1,2,8.19A16.7,16.7,0,0,1,27.57,94.95ZM17.57,92a6.88,6.88,0,0,0,2-5.27,6.88,6.88,0,0,0-2-5.27,7.44,7.44,0,0,0-5.31-1.85H9.9V93.87h2.36A7.43,7.43,0,0,0,17.57,92Z"/><path class="cls-1" d="M45.72,78.83v4h9.81v7.52H45.72v4.5H56.87v8H35.82V70.91H56.87v7.92Z"/><path class="cls-1" d="M86.29,98.32a9.62,9.62,0,0,1-4.08,3.49,14.63,14.63,0,0,1-6.38,1.28,15.47,15.47,0,0,1-9.34-2.68,9.89,9.89,0,0,1-4-7.85H73q.22,2.75,2.41,2.75a1.81,1.81,0,0,0,1.23-.41,1.46,1.46,0,0,0,.47-1.17A2,2,0,0,0,76,92a22.33,22.33,0,0,0-3.68-1.51,34,34,0,0,1-5-2,10,10,0,0,1-3.46-3.06A9.88,9.88,0,0,1,64,74.8a9.79,9.79,0,0,1,4.33-3.31,16.16,16.16,0,0,1,6.18-1.13q5.66,0,9,2.66a10.05,10.05,0,0,1,3.66,7.65H76.5q-.22-2.52-2.05-2.52a1.43,1.43,0,0,0-1,.38,1.52,1.52,0,0,0-.4,1.15,1.92,1.92,0,0,0,1.14,1.69,23.21,23.21,0,0,0,3.55,1.51,38,38,0,0,1,5,2.14,10.34,10.34,0,0,1,3.48,3.11,8.68,8.68,0,0,1,1.49,5.24A9,9,0,0,1,86.29,98.32Z"/><path d="M126.41,70.91v7.92H114v4.41h8.92v7.52H114v12h-9.9V70.91Z"/><path d="M152.68,98H142.15l-1.56,4.82H130.2l11.55-31.87h11.42l11.51,31.87H154.24Zm-2.41-7.52-2.85-8.87-2.85,8.87Z"/><path class="cls-1" d="M179.26,70.91v18a5.7,5.7,0,0,0,1,3.49,3.62,3.62,0,0,0,3.1,1.28,3.81,3.81,0,0,0,3.17-1.28,5.43,5.43,0,0,0,1-3.49v-18h9.86v18a15.18,15.18,0,0,1-1.87,7.76,12,12,0,0,1-5.13,4.84,16.09,16.09,0,0,1-7.27,1.62,15.13,15.13,0,0,1-7.11-1.62,11.48,11.48,0,0,1-4.84-4.82,16.09,16.09,0,0,1-1.74-7.79v-18Z"/><path d="M224.44,102.78l-5.8-8.28-4.82,8.28H202.54l10.39-16.43L202.1,70.91h11.73l5.58,8,4.64-8h11.28L225.11,87l11.06,15.75Z"/><path d="M99.91,127.7a5.64,5.64,0,0,1-2.39,2,8.58,8.58,0,0,1-3.74.75,9.07,9.07,0,0,1-5.48-1.57A5.8,5.8,0,0,1,86,124.33h6.17q.13,1.61,1.41,1.61a1.06,1.06,0,0,0,.72-.24.86.86,0,0,0,.27-.69,1.16,1.16,0,0,0-.67-1,13.1,13.1,0,0,0-2.16-.88,19.91,19.91,0,0,1-2.92-1.19,5.85,5.85,0,0,1-2-1.79,5.79,5.79,0,0,1,.07-6.19A5.74,5.74,0,0,1,89.37,112a9.47,9.47,0,0,1,3.62-.66,8.27,8.27,0,0,1,5.28,1.56,5.89,5.89,0,0,1,2.14,4.49H94.17q-.13-1.48-1.2-1.48a.84.84,0,0,0-.6.22.89.89,0,0,0-.24.67,1.13,1.13,0,0,0,.67,1,13.61,13.61,0,0,0,2.08.88,22.26,22.26,0,0,1,2.94,1.25,6.07,6.07,0,0,1,2,1.82,5.09,5.09,0,0,1,.88,3.08A5.29,5.29,0,0,1,99.91,127.7Z"/><path d="M110.15,116.27v2.32h5.75V123h-5.75v2.64h6.54v4.67H104.35V111.63h12.35v4.65Z"/><path class="cls-1" d="M142.72,111.63v18.69h-5.78V121l-2.85,9.32h-5L126.27,121v9.32h-5.81V111.63h7.11l4.08,11.22,4-11.22Z"/><path d="M161.9,122.36a4.58,4.58,0,0,1,.93,2.84,4.64,4.64,0,0,1-1.61,3.79,7.06,7.06,0,0,1-4.62,1.33h-9.7V111.63h9.44a7.16,7.16,0,0,1,4.45,1.24,4.28,4.28,0,0,1,1.62,3.62,4.44,4.44,0,0,1-.85,2.76,4,4,0,0,1-2.26,1.49A4.41,4.41,0,0,1,161.9,122.36Zm-9.19-3.44H155a1.79,1.79,0,0,0,1.16-.32,1.2,1.2,0,0,0,.38-1,1.28,1.28,0,0,0-.38-1,1.74,1.74,0,0,0-1.16-.33h-2.25Zm3.81,6.4a1.19,1.19,0,0,0,.38-1q0-1.35-1.54-1.35h-2.64v2.64h2.64A1.85,1.85,0,0,0,156.52,125.32Z"/><path class="cls-1" d="M172.17,125.88h5.6v4.43h-11.4V111.63h5.81Z"/><path class="cls-1" d="M193,127.49h-6.17l-.92,2.82h-6.09l6.77-18.69h6.7l6.75,18.69H194Zm-1.41-4.41-1.67-5.2-1.67,5.2Z"/><path d="M220.72,130.32h-5.81l-6.15-9.4v9.4H203V111.63h5.81l6.15,9.56v-9.56h5.81Z"/><path class="cls-1" d="M239.45,111.63v4.65h-4.92v14h-5.81v-14h-4.87v-4.65Z"/><path d="M256.07,127.7a5.64,5.64,0,0,1-2.39,2,8.58,8.58,0,0,1-3.74.75,9.07,9.07,0,0,1-5.48-1.57,5.8,5.8,0,0,1-2.34-4.61h6.17q.13,1.61,1.41,1.61a1.06,1.06,0,0,0,.72-.24.86.86,0,0,0,.27-.69,1.16,1.16,0,0,0-.67-1,13.1,13.1,0,0,0-2.16-.88A19.91,19.91,0,0,1,245,121.9a5.85,5.85,0,0,1-2-1.79,5.79,5.79,0,0,1,.07-6.19,5.74,5.74,0,0,1,2.54-1.94,9.47,9.47,0,0,1,3.62-.66,8.27,8.27,0,0,1,5.28,1.56,5.89,5.89,0,0,1,2.14,4.49h-6.25q-.13-1.48-1.2-1.48a.84.84,0,0,0-.6.22.89.89,0,0,0-.24.67,1.13,1.13,0,0,0,.67,1,13.61,13.61,0,0,0,2.08.88A22.26,22.26,0,0,1,254,119.9a6.07,6.07,0,0,1,2,1.82,5.09,5.09,0,0,1,.88,3.08A5.29,5.29,0,0,1,256.07,127.7Z"/></g></g></svg>