# WaveFront *.obj file (generated by CINEMA 4D)

mtllib ./1bis.interaction_porte.mtl

v -4.36770820617676 -71.42546844482422 66.37855529785156
v -4.36770820617676 59.97453308105469 66.37855529785156
v 0.85377871990204 -71.42546844482422 66.37855529785156
v 0.85377871990204 59.97453308105469 66.37855529785156
v 0.85377871990204 -71.42546844482422 -72.32685852050781
v 0.85377871990204 59.97453308105469 -72.32685852050781
v -4.36770820617676 -71.42546844482422 -72.32685852050781
v -4.36770820617676 59.97453308105469 -72.32685852050781
v -4.36770820617676 -4.67672204971313 -72.32685852050781
v -4.36770820617676 -4.67672204971313 66.37855529785156
v -4.36770820617676 30.92540168762207 -72.32685852050781
v -4.36770820617676 42.13271713256836 66.37855529785156
v -4.36770820617676 43.8247184753418 66.37855529785156
v -4.36770820617676 -16.51362037658691 66.37855529785156
v -4.36770820617676 -14.82161998748779 -72.32685852050781
v -4.36770820617676 -14.82161998748779 66.37855529785156
v -4.36770820617676 -28.40095329284668 -72.32685852050781
v -4.36770820617676 -28.40095329284668 66.37855529785156
v -4.36770820617676 19.03442001342773 -72.32685852050781
v -4.36770820617676 30.92540168762207 66.37855529785156
v -4.36770820617676 32.61740112304688 66.37855529785156
v -4.36770820617676 -40.18265151977539 66.37855529785156
v -4.36770820617676 -38.49065017700195 -72.32685852050781
v -4.36770820617676 -38.49065017700195 66.37855529785156
v -4.36770820617676 -51.87432479858398 -72.32685852050781
v -4.36770820617676 -51.87432479858398 66.37855529785156
v -4.36770820617676 7.22270059585571 -72.32685852050781
v -4.36770820617676 19.03442001342773 66.37855529785156
v -4.36770820617676 20.72642135620117 66.37855529785156
v -4.36770820617676 -16.51362037658691 -72.32685852050781
v -4.36770820617676 -2.98472142219543 66.37855529785156
v -4.36770820617676 42.13271713256836 -72.32685852050781
v -4.36770820617676 7.22270059585571 66.37855529785156
v -4.36770820617676 8.91470146179199 66.37855529785156
v -4.36770820617676 32.61740112304688 -72.32685852050781
v -4.36770820617676 20.72642135620117 -72.32685852050781
v -4.36770820617676 43.8247184753418 -72.32685852050781
v -4.36770820617676 8.91470146179199 -72.32685852050781
v -4.36770820617676 -50.18232727050781 66.37855529785156
v -4.36770820617676 -50.18232727050781 -72.32685852050781
v -4.36770820617676 -40.18265151977539 -72.32685852050781
v -4.36770820617676 -26.70895195007324 66.37855529785156
v -4.36770820617676 -2.98472142219543 -72.32685852050781
v -4.36770820617676 -26.70895195007324 -72.32685852050781
v -3.07093691825867 19.88042068481445 66.37855529785156
v -3.55937528610229 43.8247184753418 66.37855529785156
v -3.55937528610229 20.72642135620117 66.37855529785156
v -3.07093691825867 42.97871780395508 66.37855529785156
v -3.55937528610229 30.92540168762207 66.37855529785156
v -3.07093691825867 31.77140235900879 66.37855529785156
v -3.55937528610229 32.61740112304688 66.37855529785156
v -3.55937528610229 42.13271713256836 66.37855529785156
v -3.55937528610229 7.22270059585571 66.37855529785156
v -3.55937528610229 19.03442001342773 66.37855529785156
v -3.07093691825867 8.06870079040527 66.37855529785156
v -3.55937528610229 -38.49065017700195 66.37855529785156
v -3.07093691825867 -39.33665084838867 66.37855529785156
v -3.55937528610229 -2.98472142219543 66.37855529785156
v -3.07093691825867 -3.830721616745 66.37855529785156
v -3.55937528610229 -16.51362037658691 66.37855529785156
v -3.55937528610229 8.91470146179199 66.37855529785156
v -3.55937528610229 -4.67672204971313 66.37855529785156
v -3.07093691825867 -15.66762065887451 66.37855529785156
v -3.07093691825867 -27.55495262145996 66.37855529785156
v -3.55937528610229 -28.40095329284668 66.37855529785156
v -3.07093691825867 -51.02832794189453 66.37855529785156
v -3.55937528610229 -51.87432479858398 66.37855529785156
v -3.55937528610229 -26.70895195007324 66.37855529785156
v -3.55937528610229 -40.18265151977539 66.37855529785156
v -3.55937528610229 -50.18232727050781 66.37855529785156
v -3.55937528610229 -14.82161998748779 66.37855529785156
v -3.55937528610229 42.13271713256836 -72.32685852050781
v -3.55937528610229 8.91470146179199 -72.32685852050781
v -3.07093691825867 8.06870079040527 -72.32685852050781
v -3.55937528610229 43.8247184753418 -72.32685852050781
v -3.55937528610229 30.92540168762207 -72.32685852050781
v -3.07093691825867 42.97871780395508 -72.32685852050781
v -3.07093691825867 31.77140235900879 -72.32685852050781
v -3.07093691825867 19.88042068481445 -72.32685852050781
v -3.55937528610229 19.03442001342773 -72.32685852050781
v -3.55937528610229 20.72642135620117 -72.32685852050781
v -3.55937528610229 7.22270059585571 -72.32685852050781
v -3.55937528610229 32.61740112304688 -72.32685852050781
v -3.55937528610229 -50.18232727050781 -72.32685852050781
v -3.07093691825867 -51.02832794189453 -72.32685852050781
v -3.07093691825867 -3.830721616745 -72.32685852050781
v -3.55937528610229 -4.67672204971313 -72.32685852050781
v -3.55937528610229 -2.98472142219543 -72.32685852050781
v -3.07093691825867 -15.66762065887451 -72.32685852050781
v -3.55937528610229 -16.51362037658691 -72.32685852050781
v -3.55937528610229 -14.82161998748779 -72.32685852050781
v -3.07093691825867 -27.55495262145996 -72.32685852050781
v -3.55937528610229 -28.40095329284668 -72.32685852050781
v -3.55937528610229 -26.70895195007324 -72.32685852050781
v -3.07093691825867 -39.33665084838867 -72.32685852050781
v -3.55937528610229 -40.18265151977539 -72.32685852050781
v -3.55937528610229 -38.49065017700195 -72.32685852050781
v -3.55937528610229 -51.87432479858398 -72.32685852050781
v -3.07093691825867 42.97871780395508 66.37855529785156
v -3.55937528610229 42.13271713256836 66.37855529785156
v -3.55937528610229 30.92540168762207 -72.32685852050781
v -3.55937528610229 19.03442001342773 66.37855529785156
v -3.55937528610229 43.8247184753418 66.37855529785156
v -3.07093691825867 31.77140235900879 66.37855529785156
v -3.55937528610229 30.92540168762207 66.37855529785156
v -3.55937528610229 19.03442001342773 -72.32685852050781
v -3.55937528610229 32.61740112304688 66.37855529785156
v -3.07093691825867 19.88042068481445 66.37855529785156
v -3.55937528610229 8.91470146179199 66.37855529785156
v -3.55937528610229 7.22270059585571 -72.32685852050781
v -3.55937528610229 20.72642135620117 66.37855529785156
v -3.07093691825867 8.06870079040527 66.37855529785156
v -3.55937528610229 -51.87432479858398 66.37855529785156
v -3.55937528610229 -16.51362037658691 66.37855529785156
v -3.55937528610229 -28.40095329284668 -72.32685852050781
v -3.07093691825867 -3.830721616745 66.37855529785156
v -3.55937528610229 -14.82161998748779 66.37855529785156
v -3.55937528610229 -16.51362037658691 -72.32685852050781
v -3.55937528610229 43.8247184753418 -72.32685852050781
v -3.55937528610229 -40.18265151977539 -72.32685852050781
v -3.07093691825867 -15.66762065887451 66.37855529785156
v -3.55937528610229 -26.70895195007324 66.37855529785156
v -3.55937528610229 -40.18265151977539 66.37855529785156
v -3.07093691825867 -39.33665084838867 66.37855529785156
v -3.55937528610229 -51.87432479858398 -72.32685852050781
v -3.07093691825867 -27.55495262145996 66.37855529785156
v -3.55937528610229 -28.40095329284668 66.37855529785156
v -3.07093691825867 -51.02832794189453 66.37855529785156
v -3.55937528610229 -4.67672204971313 -72.32685852050781
v -3.55937528610229 -50.18232727050781 66.37855529785156
v -3.55937528610229 -38.49065017700195 66.37855529785156
v -3.07093691825867 31.77140235900879 -72.32685852050781
v -3.07093691825867 19.88042068481445 -72.32685852050781
v -3.07093691825867 8.06870079040527 -72.32685852050781
v -3.55937528610229 20.72642135620117 -72.32685852050781
v -3.55937528610229 -38.49065017700195 -72.32685852050781
v -3.07093691825867 -39.33665084838867 -72.32685852050781
v -3.55937528610229 -50.18232727050781 -72.32685852050781
v -4.36770820617676 -26.70895195007324 66.37855529785156
v -4.36770820617676 43.8247184753418 66.37855529785156
v -4.36770820617676 -51.87432479858398 66.37855529785156
v -4.36770820617676 -38.49065017700195 66.37855529785156
v -4.36770820617676 20.72642135620117 66.37855529785156
v -4.36770820617676 32.61740112304688 66.37855529785156
v -4.36770820617676 30.92540168762207 66.37855529785156
v -4.36770820617676 20.72642135620117 -72.32685852050781
v -4.36770820617676 -50.18232727050781 66.37855529785156
v -4.36770820617676 42.13271713256836 66.37855529785156
v -4.36770820617676 19.03442001342773 66.37855529785156
v -4.36770820617676 8.91470146179199 -72.32685852050781
v -4.36770820617676 -2.98472142219543 66.37855529785156
v -4.36770820617676 -28.40095329284668 66.37855529785156
v -4.36770820617676 -2.98472142219543 -72.32685852050781
v -4.36770820617676 -28.40095329284668 -72.32685852050781
v -4.36770820617676 -16.51362037658691 66.37855529785156
v -4.36770820617676 -26.70895195007324 -72.32685852050781
v -4.36770820617676 -40.18265151977539 66.37855529785156
# 157 vertices

vn 0 0 1
vn 0 0 0
vn 1 0 0
vn 0 0 -1
vn -1 0 0
vn 0 1 0
vn 0 -1 0
vn -0.86602556705475 0.49999976158142 0
vn -0.86602556705475 -0.49999976158142 0
vn -0.86602509021759 -0.5000005364418 0
vn -0.86602544784546 0.49999994039536 0
vn -0.8660255074501 0.49999982118607 0
vn -0.86602544784546 -0.49999994039536 0
vn -0.86602532863617 0.50000017881393 0
vn -0.86602455377579 0.50000143051147 0
vn 0 1 -0
vn -0 -1 0
vn -0.86602538824081 -0.5 0
# 18 normals

vt 0.1548089236021 0.43077516555786 0
vt 0 0.43077516555786 0
vt 0 0.507981300354 0
vt 0.1548089236021 0.507981300354 0
vt 0.1548089236021 0.5208580493927 0
vt 0 0.5208580493927 0
vt 0 0.59854012727737 0
vt 0.1548089236021 0.59854012727737 0
vt 0.1548089236021 0.61141681671143 0
vt 0 0.61141681671143 0
vt 0.1548089236021 0.6884314417839 0
vt 0.24835288524628 0.69486975669861 0
vt 0.1548089236021 0.70130813121796 0
vt 0 0.70130813121796 0
vt 0 0.77892595529556 0
vt 0.1548089236021 0.77892595529556 0
vt 0.1548089236021 0.79180264472961 0
vt 0 0.79180264472961 0
vt 0 0.86421751976013 0
vt 0 1 0
vt 1 0 0
vt 0 0 0
vt 0 0.14879107475281 0
vt 0.1548089236021 0.14879107475281 0
vt 0 0.87709426879883 0
vt 1 1 0
vt 0.1548089236021 0.87709426879883 0
vt 0.1548089236021 0.34030830860138 0
vt 0 0.34030830860138 0
vt 0 0.41789841651916 0
vt 0.1548089236021 0.41789841651916 0
vt 0 0.6884314417839 0
vt 0 0.25064551830292 0
vt 0 0.32743167877197 0
vt 0.1548089236021 0.32743167877197 0
vt 0.1548089236021 0.25064551830292 0
vt 0.1548089236021 0.1616678237915 0
vt 0 0.1616678237915 0
vt 0 0.23776876926422 0
vt 0.1548089236021 0.23776876926422 0
vt 0.1548089236021 0.86421751976013 0
vt 0.24835288524628 0.78536427021027 0
vt 0.24835288524628 0.87065589427948 0
vt 0.24835288524628 0.15522944927216 0
vt 0.24835288524628 0.24420714378357 0
vt 0.24835288524628 0.42433679103851 0
vt 0.24835288524628 0.60497844219208 0
vt 0.24835288524628 0.51441967487335 0
vt 0.24835288524628 0.33387005329132 0
vt 0.84519106149673 0.86421751976013 0
vt 1 0.86421751976013 0
vt 1 0.79180264472961 0
vt 0.84519106149673 0.77892595529556 0
vt 1 0.77892595529556 0
vt 1 0.70130813121796 0
vt 0.84519106149673 0.70130813121796 0
vt 0.84519106149673 0.6884314417839 0
vt 1 0.6884314417839 0
vt 1 0.61141681671143 0
vt 0.84519106149673 0.61141681671143 0
vt 0.84519106149673 0.507981300354 0
vt 1 0.507981300354 0
vt 1 0.43077516555786 0
vt 0.84519106149673 0.41789841651916 0
vt 1 0.41789841651916 0
vt 0.84519106149673 0.34030830860138 0
vt 0.75164711475372 0.33387005329132 0
vt 0.84519106149673 0.32743167877197 0
vt 1 0.32743167877197 0
vt 1 0.25064551830292 0
vt 0.84519106149673 0.14879107475281 0
vt 1 0.14879107475281 0
vt 1 0.59854012727737 0
vt 1 0.5208580493927 0
vt 0.84519106149673 0.5208580493927 0
vt 0.84519106149673 0.59854012727737 0
vt 1 0.34030830860138 0
vt 0.84519106149673 0.43077516555786 0
vt 0.75164711475372 0.51441967487335 0
vt 0.84519106149673 0.25064551830292 0
vt 1 0.23776876926422 0
vt 1 0.1616678237915 0
vt 0.84519106149673 0.1616678237915 0
vt 0.84519106149673 0.79180264472961 0
vt 0.75164711475372 0.87065589427948 0
vt 1 0.87709426879883 0
vt 0.84519106149673 0.87709426879883 0
vt 0.75164711475372 0.15522944927216 0
vt 0.84519106149673 0.23776876926422 0
vt 0.75164711475372 0.60497844219208 0
vt 0.75164711475372 0.69486975669861 0
vt 0.75164711475372 0.78536427021027 0
vt 0.75164711475372 0.24420714378357 0
vt 0.75164711475372 0.42433679103851 0
vt 0 0.83545506000519 0
vt 0 0.18881237506866 0
vt 0.16666667163372 0.18881237506866 0
vt 0.16666667163372 0.83545506000519 0
vt 0.30457770824432 0.18881237506866 0
vt 0.30457770824432 0.83545506000519 0
vt 0.83333331346512 0.83545506000519 0
vt 0.69542229175568 0.83545506000519 0
vt 0.69542229175568 0.18881237506866 0
vt 0.83333331346512 0.18881237506866 0
vt 1 0.18881237506866 0
vt 1 0.83545506000519 0
vt 0 0.83545506000519 0
vt 0 0.83545506000519 0
# 108 texture coordinates

o 1bis.interaction_porte
usemtl blanc
f 62/4/1 10/3/1 16/2/1 71/1/1
f 53/8/1 33/7/1 31/6/1 58/5/1
f 45/12/1 54/11/1 34/10/1 61/9/1
f 49/16/1 20/15/1 29/14/1 47/13/1
f 12/19/1 21/18/1 51/17/1
f 67/24/1 26/23/1 1/22/1 3/21/1
f 46/27/1 4/26/1 2/20/1 13/25/1
f 60/31/1 14/30/1 42/29/1 68/28/1
f 54/11/1 28/32/1 34/10/1
f 56/36/1 65/35/1 18/34/1 24/33/1
f 69/40/1 22/39/1 39/38/1 70/37/1
f 50/42/1 52/41/1 12/19/1 51/17/1
f 4/26/1 46/27/1 48/43/1
f 66/44/1 67/24/1 3/21/1
f 57/45/1 65/35/1 56/36/1
f 62/4/1 71/1/1 63/46/1
f 57/45/1 69/40/1 70/37/1 66/44/1
f 48/43/1 52/41/1 50/42/1
f 45/12/1 61/9/1 55/47/1
f 3/21/1 59/48/1 62/4/1 63/46/1
f 63/46/1 60/31/1 68/28/1 64/49/1
f 50/42/1 49/16/1 47/13/1 45/12/1
f 55/47/1 53/8/1 58/5/1 59/48/1
f 50/42/1 3/21/1 4/26/1 48/43/1
f 57/45/1 66/44/1 3/21/1
f 57/45/1 3/21/1 64/49/1 65/35/1
f 45/12/2 55/47/2 59/48/2
f 63/46/1 64/49/1 3/21/1
f 3/21/1 50/42/1 45/12/1
f 3/21/1 45/12/1 59/48/1
f 5/21/3 6/26/3 4/20/3 3/22/3
f 35/52/4 32/51/4 72/50/4
f 81/56/4 36/55/4 11/54/4 76/53/4
f 73/60/4 38/59/4 19/58/4 80/57/4
f 15/63/4 9/62/4 87/61/4
f 92/67/4 94/66/4 30/65/4 90/64/4
f 23/70/4 17/69/4 93/68/4
f 5/22/4 7/21/4 25/72/4 98/71/4
f 82/76/4 88/75/4 43/74/4 27/73/4
f 94/66/4 44/77/4 30/65/4
f 86/79/4 91/78/4 15/63/4 87/61/4
f 92/67/4 97/80/4 23/70/4 93/68/4
f 84/83/4 40/82/4 41/81/4
f 77/85/4 83/84/4 35/52/4 72/50/4
f 6/20/4 75/87/4 37/86/4 8/26/4
f 77/85/4 75/87/4 6/20/4
f 5/22/4 98/71/4 85/88/4
f 85/88/4 84/83/4 41/81/4 96/89/4
f 86/79/4 88/75/4 82/76/4 74/90/4
f 74/90/4 73/60/4 80/57/4 79/91/4
f 78/92/4 83/84/4 77/85/4
f 95/93/4 97/80/4 92/67/4
f 89/94/4 91/78/4 86/79/4
f 92/67/4 90/64/4 89/94/4
f 78/92/4 79/91/4 81/56/4 76/53/4
f 95/93/4 5/22/4 85/88/4 96/89/4
f 78/92/4 77/85/4 6/20/4 5/22/4
f 92/67/2 89/94/2 86/79/2
f 5/22/4 95/93/4 92/67/4
f 79/91/4 78/92/4 5/22/4
f 5/22/4 86/79/4 74/90/4
f 5/22/4 92/67/4 86/79/4
f 5/22/4 74/90/4 79/91/4
f 39/82/5 22/81/5 41/39/5 40/38/5
f 24/70/5 18/69/5 17/34/5 23/33/5
f 42/77/5 14/65/5 30/30/5 44/29/5
f 16/63/5 10/62/5 9/3/5 15/2/5
f 31/74/5 33/73/5 27/7/5 43/6/5
f 34/59/5 28/58/5 19/32/5 38/10/5
f 29/55/5 20/54/5 11/15/5 36/14/5
f 21/52/5 12/51/5 32/19/5 35/18/5
f 25/23/5 7/22/5 1/21/5 26/72/5
f 13/86/5 2/26/5 8/20/5 37/25/5
f 4/21/6 6/26/6 8/20/6 2/22/6
f 5/21/7 3/26/7 1/20/7 7/22/7
f 72/98/8 100/97/8 99/96/8 77/95/8
f 72/98/6 32/100/6 148/99/6 100/97/6
f 103/104/7 140/103/7 37/102/7 119/101/7
f 77/106/9 99/105/9 103/104/9 119/101/9
f 101/98/8 105/97/8 104/96/8 132/95/8
f 101/98/6 11/100/6 145/99/6 105/97/6
f 107/104/7 144/103/7 35/102/7 83/101/7
f 132/106/10 104/105/10 107/104/10 83/101/10
f 106/98/8 102/97/8 108/96/8 133/95/8
f 106/98/6 19/100/6 149/99/6 102/97/6
f 111/104/7 143/103/7 146/102/7 135/101/7
f 133/106/9 108/105/9 111/104/9 135/101/9
f 110/98/11 53/97/11 112/96/11 134/107/11
f 110/98/6 27/100/6 33/99/6 53/97/6
f 109/104/7 34/103/7 150/102/7 73/101/7
f 134/106/9 112/105/9 109/104/9 73/101/9
f 129/98/12 62/97/12 116/96/12 86/107/12
f 129/98/6 9/100/6 10/99/6 62/97/6
f 58/104/7 151/103/7 153/102/7 88/101/7
f 86/106/13 116/105/13 58/104/13 88/101/13
f 118/98/14 114/97/14 121/96/14 89/95/14
f 118/98/6 30/100/6 155/99/6 114/97/6
f 117/104/7 16/103/7 15/102/7 91/101/7
f 89/106/9 121/105/9 117/104/9 91/101/9
f 115/98/8 127/97/8 126/96/8 92/95/8
f 115/98/6 154/100/6 152/99/6 127/97/6
f 122/104/7 139/103/7 156/102/7 94/101/7
f 92/106/9 126/105/9 122/104/9 94/101/9
f 120/98/8 123/97/8 124/96/8 137/108/8
f 120/98/6 41/100/6 157/99/6 123/97/6
f 131/104/7 142/103/7 23/102/7 136/101/7
f 137/106/9 124/105/9 131/104/9 136/101/9
f 125/98/15 113/97/15 128/96/15 85/95/15
f 125/98/16 25/100/16 141/99/16 113/97/16
f 130/104/17 147/103/17 40/102/17 138/101/17
f 85/106/18 128/105/18 130/104/18 138/101/18

