# WaveFront *.obj file (generated by CINEMA 4D)

mtllib ./5.interaction_porte.mtl

v 4.36770820617676 -57.40140533447266 -36.90453720092773
v 4.36770820617676 48.19881057739258 -36.90453720092773
v -0.85377871990204 -57.40140533447266 -36.90453720092773
v -0.85377871990204 48.19881057739258 -36.90453720092773
v -0.85377871990204 -57.40140533447266 40.21162033081055
v -0.85377871990204 48.19881057739258 40.21162033081055
v 4.36770820617676 -57.40140533447266 40.21162033081055
v 4.36770820617676 48.19881057739258 40.21162033081055
v 4.36770820617676 -3.75846934318542 40.21162033081055
v 4.36770820617676 -3.75846934318542 -36.90453720092773
v 4.36770820617676 24.85334205627441 40.21162033081055
v 4.36770820617676 33.86015319824219 -36.90453720092773
v 4.36770820617676 35.21993637084961 -36.90453720092773
v 4.36770820617676 -13.27124786376953 -36.90453720092773
v 4.36770820617676 -11.91146373748779 40.21162033081055
v 4.36770820617676 -11.91146373748779 -36.90453720092773
v 4.36770820617676 -22.82455825805664 40.21162033081055
v 4.36770820617676 -22.82455825805664 -36.90453720092773
v 4.36770820617676 15.29710006713867 40.21162033081055
v 4.36770820617676 24.85334205627441 -36.90453720092773
v 4.36770820617676 26.21312522888184 -36.90453720092773
v 4.36770820617676 -32.29297256469727 -36.90453720092773
v 4.36770820617676 -30.93318939208984 40.21162033081055
v 4.36770820617676 -30.93318939208984 -36.90453720092773
v 4.36770820617676 -41.68904113769531 40.21162033081055
v 4.36770820617676 -41.68904113769531 -36.90453720092773
v 4.36770820617676 5.80455684661865 40.21162033081055
v 4.36770820617676 15.29710006713867 -36.90453720092773
v 4.36770820617676 16.65688323974609 -36.90453720092773
v 4.36770820617676 -13.27124786376953 40.21162033081055
v 4.36770820617676 -2.39868497848511 -36.90453720092773
v 4.36770820617676 33.86015319824219 40.21162033081055
v 4.36770820617676 5.80455684661865 -36.90453720092773
v 4.36770820617676 7.16434097290039 -36.90453720092773
v 4.36770820617676 26.21312522888184 40.21162033081055
v 4.36770820617676 16.65688323974609 40.21162033081055
v 4.36770820617676 35.21993637084961 40.21162033081055
v 4.36770820617676 7.16434097290039 40.21162033081055
v 4.36770820617676 -40.32925796508789 -36.90453720092773
v 4.36770820617676 -40.32925796508789 40.21162033081055
v 4.36770820617676 -32.29297256469727 40.21162033081055
v 4.36770820617676 -21.46477317810059 -36.90453720092773
v 4.36770820617676 -2.39868497848511 40.21162033081055
v 4.36770820617676 -21.46477317810059 40.21162033081055
v 3.07093691825867 15.97699165344238 -36.90453720092773
v 3.55937528610229 35.21993637084961 -36.90453720092773
v 3.55937528610229 16.65688323974609 -36.90453720092773
v 3.07093691825867 34.54004287719727 -36.90453720092773
v 3.55937528610229 24.85334205627441 -36.90453720092773
v 3.07093691825867 25.53323364257812 -36.90453720092773
v 3.55937528610229 26.21312522888184 -36.90453720092773
v 3.55937528610229 33.86015319824219 -36.90453720092773
v 3.55937528610229 5.80455684661865 -36.90453720092773
v 3.55937528610229 15.29710006713867 -36.90453720092773
v 3.07093691825867 6.48444890975952 -36.90453720092773
v 3.55937528610229 -30.93318939208984 -36.90453720092773
v 3.07093691825867 -31.61308097839355 -36.90453720092773
v 3.55937528610229 -2.39868497848511 -36.90453720092773
v 3.07093691825867 -3.07857728004456 -36.90453720092773
v 3.55937528610229 -13.27124786376953 -36.90453720092773
v 3.55937528610229 7.16434097290039 -36.90453720092773
v 3.55937528610229 -3.75846934318542 -36.90453720092773
v 3.07093691825867 -12.5913553237915 -36.90453720092773
v 3.07093691825867 -22.1446647644043 -36.90453720092773
v 3.55937528610229 -22.82455825805664 -36.90453720092773
v 3.07093691825867 -41.00915145874023 -36.90453720092773
v 3.55937528610229 -41.68904113769531 -36.90453720092773
v 3.55937528610229 -21.46477317810059 -36.90453720092773
v 3.55937528610229 -32.29297256469727 -36.90453720092773
v 3.55937528610229 -40.32925796508789 -36.90453720092773
v 3.55937528610229 -11.91146373748779 -36.90453720092773
v 3.55937528610229 33.86015319824219 40.21162033081055
v 3.55937528610229 7.16434097290039 40.21162033081055
v 3.07093691825867 6.48444890975952 40.21162033081055
v 3.55937528610229 35.21993637084961 40.21162033081055
v 3.55937528610229 24.85334205627441 40.21162033081055
v 3.07093691825867 34.54004287719727 40.21162033081055
v 3.07093691825867 25.53323364257812 40.21162033081055
v 3.07093691825867 15.97699165344238 40.21162033081055
v 3.55937528610229 15.29710006713867 40.21162033081055
v 3.55937528610229 16.65688323974609 40.21162033081055
v 3.55937528610229 5.80455684661865 40.21162033081055
v 3.55937528610229 26.21312522888184 40.21162033081055
v 3.55937528610229 -40.32925796508789 40.21162033081055
v 3.07093691825867 -41.00915145874023 40.21162033081055
v 3.07093691825867 -3.07857728004456 40.21162033081055
v 3.55937528610229 -3.75846934318542 40.21162033081055
v 3.55937528610229 -2.39868497848511 40.21162033081055
v 3.07093691825867 -12.5913553237915 40.21162033081055
v 3.55937528610229 -13.27124786376953 40.21162033081055
v 3.55937528610229 -11.91146373748779 40.21162033081055
v 3.07093691825867 -22.1446647644043 40.21162033081055
v 3.55937528610229 -22.82455825805664 40.21162033081055
v 3.55937528610229 -21.46477317810059 40.21162033081055
v 3.07093691825867 -31.61308097839355 40.21162033081055
v 3.55937528610229 -32.29297256469727 40.21162033081055
v 3.55937528610229 -30.93318939208984 40.21162033081055
v 3.55937528610229 -41.68904113769531 40.21162033081055
v 3.07093691825867 34.54004287719727 -36.90453720092773
v 3.55937528610229 33.86015319824219 -36.90453720092773
v 3.55937528610229 24.85334205627441 40.21162033081055
v 3.55937528610229 15.29710006713867 -36.90453720092773
v 3.55937528610229 35.21993637084961 -36.90453720092773
v 3.07093691825867 25.53323364257812 -36.90453720092773
v 3.55937528610229 24.85334205627441 -36.90453720092773
v 3.55937528610229 15.29710006713867 40.21162033081055
v 3.55937528610229 26.21312522888184 -36.90453720092773
v 3.07093691825867 15.97699165344238 -36.90453720092773
v 3.55937528610229 7.16434097290039 -36.90453720092773
v 3.55937528610229 5.80455684661865 40.21162033081055
v 3.55937528610229 16.65688323974609 -36.90453720092773
v 3.07093691825867 6.48444890975952 -36.90453720092773
v 3.55937528610229 -41.68904113769531 -36.90453720092773
v 3.55937528610229 -13.27124786376953 -36.90453720092773
v 3.55937528610229 -22.82455825805664 40.21162033081055
v 3.07093691825867 -3.07857728004456 -36.90453720092773
v 3.55937528610229 -11.91146373748779 -36.90453720092773
v 3.55937528610229 -13.27124786376953 40.21162033081055
v 3.55937528610229 35.21993637084961 40.21162033081055
v 3.55937528610229 -32.29297256469727 40.21162033081055
v 3.07093691825867 -12.5913553237915 -36.90453720092773
v 3.55937528610229 -21.46477317810059 -36.90453720092773
v 3.55937528610229 -32.29297256469727 -36.90453720092773
v 3.07093691825867 -31.61308097839355 -36.90453720092773
v 3.55937528610229 -41.68904113769531 40.21162033081055
v 3.07093691825867 -22.1446647644043 -36.90453720092773
v 3.55937528610229 -22.82455825805664 -36.90453720092773
v 3.07093691825867 -41.00915145874023 -36.90453720092773
v 3.55937528610229 -3.75846934318542 40.21162033081055
v 3.55937528610229 -40.32925796508789 -36.90453720092773
v 3.55937528610229 -30.93318939208984 -36.90453720092773
v 3.07093691825867 25.53323364257812 40.21162033081055
v 3.07093691825867 15.97699165344238 40.21162033081055
v 3.07093691825867 6.48444890975952 40.21162033081055
v 3.55937528610229 16.65688323974609 40.21162033081055
v 3.55937528610229 -30.93318939208984 40.21162033081055
v 3.07093691825867 -31.61308097839355 40.21162033081055
v 3.55937528610229 -40.32925796508789 40.21162033081055
v 4.36770820617676 -21.46477317810059 -36.90453720092773
v 4.36770820617676 35.21993637084961 -36.90453720092773
v 4.36770820617676 -41.68904113769531 -36.90453720092773
v 4.36770820617676 -30.93318939208984 -36.90453720092773
v 4.36770820617676 16.65688323974609 -36.90453720092773
v 4.36770820617676 26.21312522888184 -36.90453720092773
v 4.36770820617676 24.85334205627441 -36.90453720092773
v 4.36770820617676 16.65688323974609 40.21162033081055
v 4.36770820617676 -40.32925796508789 -36.90453720092773
v 4.36770820617676 33.86015319824219 -36.90453720092773
v 4.36770820617676 15.29710006713867 -36.90453720092773
v 4.36770820617676 7.16434097290039 40.21162033081055
v 4.36770820617676 -2.39868497848511 -36.90453720092773
v 4.36770820617676 -22.82455825805664 -36.90453720092773
v 4.36770820617676 -2.39868497848511 40.21162033081055
v 4.36770820617676 -22.82455825805664 40.21162033081055
v 4.36770820617676 -13.27124786376953 -36.90453720092773
v 4.36770820617676 -21.46477317810059 40.21162033081055
v 4.36770820617676 -32.29297256469727 -36.90453720092773
# 157 vertices

vn 0 0 -1
vn 0 0 0
vn -1 0 0
vn 0 0 1
vn 1 0 0
vn 0 1 0
vn 0 -1 0
vn 0.81214690208435 0.58345299959183 0
vn 0.81214845180511 -0.58345079421997 0
vn 0.81214767694473 0.58345198631287 0
vn 0.81214767694473 -0.58345198631287 0
vn 0.81214785575867 0.583451628685 0
vn 0.81214785575867 -0.583451628685 0
vn 0.81214797496796 -0.58345150947571 0
vn 0.8121480345726 0.58345139026642 0
vn 0.81214845180511 0.58345079421997 0
vn -0 1 0
vn 0 -1 -0
vn 0.81214779615402 -0.58345180749893 -0
# 19 normals

vt 0.1548089236021 0.43077516555786 0
vt 0 0.43077516555786 0
vt 0 0.507981300354 0
vt 0.1548089236021 0.507981300354 0
vt 0.1548089236021 0.5208580493927 0
vt 0 0.5208580493927 0
vt 0 0.59854012727737 0
vt 0.1548089236021 0.59854012727737 0
vt 0.1548089236021 0.61141681671143 0
vt 0 0.61141681671143 0
vt 0.1548089236021 0.6884314417839 0
vt 0.24835288524628 0.69486975669861 0
vt 0.1548089236021 0.70130813121796 0
vt 0 0.70130813121796 0
vt 0 0.77892595529556 0
vt 0.1548089236021 0.77892595529556 0
vt 0.1548089236021 0.79180264472961 0
vt 0 0.79180264472961 0
vt 0 0.86421751976013 0
vt 0 1 0
vt 1 0 0
vt 0 0 0
vt 0 0.14879107475281 0
vt 0.1548089236021 0.14879107475281 0
vt 0 0.87709426879883 0
vt 1 1 0
vt 0.1548089236021 0.87709426879883 0
vt 0.1548089236021 0.34030830860138 0
vt 0 0.34030830860138 0
vt 0 0.41789841651916 0
vt 0.1548089236021 0.41789841651916 0
vt 0 0.6884314417839 0
vt 0 0.25064551830292 0
vt 0 0.32743167877197 0
vt 0.1548089236021 0.32743167877197 0
vt 0.1548089236021 0.25064551830292 0
vt 0.1548089236021 0.1616678237915 0
vt 0 0.1616678237915 0
vt 0 0.23776876926422 0
vt 0.1548089236021 0.23776876926422 0
vt 0.1548089236021 0.86421751976013 0
vt 0.24835288524628 0.78536427021027 0
vt 0.24835288524628 0.87065589427948 0
vt 0.24835288524628 0.15522944927216 0
vt 0.24835288524628 0.24420714378357 0
vt 0.24835288524628 0.42433679103851 0
vt 0.24835288524628 0.60497844219208 0
vt 0.24835288524628 0.51441967487335 0
vt 0.24835288524628 0.33387005329132 0
vt 0.84519106149673 0.86421751976013 0
vt 1 0.86421751976013 0
vt 1 0.79180264472961 0
vt 0.84519106149673 0.77892595529556 0
vt 1 0.77892595529556 0
vt 1 0.70130813121796 0
vt 0.84519106149673 0.70130813121796 0
vt 0.84519106149673 0.6884314417839 0
vt 1 0.6884314417839 0
vt 1 0.61141681671143 0
vt 0.84519106149673 0.61141681671143 0
vt 0.84519106149673 0.507981300354 0
vt 1 0.507981300354 0
vt 1 0.43077516555786 0
vt 0.84519106149673 0.41789841651916 0
vt 1 0.41789841651916 0
vt 0.84519106149673 0.34030830860138 0
vt 0.75164711475372 0.33387005329132 0
vt 0.84519106149673 0.32743167877197 0
vt 1 0.32743167877197 0
vt 1 0.25064551830292 0
vt 0.84519106149673 0.14879107475281 0
vt 1 0.14879107475281 0
vt 1 0.59854012727737 0
vt 1 0.5208580493927 0
vt 0.84519106149673 0.5208580493927 0
vt 0.84519106149673 0.59854012727737 0
vt 1 0.34030830860138 0
vt 0.84519106149673 0.43077516555786 0
vt 0.75164711475372 0.51441967487335 0
vt 0.84519106149673 0.25064551830292 0
vt 1 0.23776876926422 0
vt 1 0.1616678237915 0
vt 0.84519106149673 0.1616678237915 0
vt 0.84519106149673 0.79180264472961 0
vt 0.75164711475372 0.87065589427948 0
vt 1 0.87709426879883 0
vt 0.84519106149673 0.87709426879883 0
vt 0.75164711475372 0.15522944927216 0
vt 0.84519106149673 0.23776876926422 0
vt 0.75164711475372 0.60497844219208 0
vt 0.75164711475372 0.69486975669861 0
vt 0.75164711475372 0.78536427021027 0
vt 0.75164711475372 0.24420714378357 0
vt 0.75164711475372 0.42433679103851 0
vt 0 0.83545506000519 0
vt 0 0.18881237506866 0
vt 0.16666667163372 0.18881237506866 0
vt 0.16666667163372 0.83545506000519 0
vt 0.30457770824432 0.18881237506866 0
vt 0.30457770824432 0.83545506000519 0
vt 0.83333331346512 0.83545506000519 0
vt 0.69542229175568 0.83545506000519 0
vt 0.69542229175568 0.18881237506866 0
vt 0.83333331346512 0.18881237506866 0
vt 1 0.18881237506866 0
vt 1 0.83545506000519 0
vt 0 0.83545506000519 0
vt 0 0.83545506000519 0
# 108 texture coordinates

o 5.interaction_porte
usemtl blanc
f 62/4/1 10/3/1 16/2/1 71/1/1
f 53/8/1 33/7/1 31/6/1 58/5/1
f 45/12/1 54/11/1 34/10/1 61/9/1
f 49/16/1 20/15/1 29/14/1 47/13/1
f 12/19/1 21/18/1 51/17/1
f 67/24/1 26/23/1 1/22/1 3/21/1
f 46/27/1 4/26/1 2/20/1 13/25/1
f 60/31/1 14/30/1 42/29/1 68/28/1
f 54/11/1 28/32/1 34/10/1
f 56/36/1 65/35/1 18/34/1 24/33/1
f 69/40/1 22/39/1 39/38/1 70/37/1
f 50/42/1 52/41/1 12/19/1 51/17/1
f 4/26/1 46/27/1 48/43/1
f 66/44/1 67/24/1 3/21/1
f 57/45/1 65/35/1 56/36/1
f 62/4/1 71/1/1 63/46/1
f 57/45/1 69/40/1 70/37/1 66/44/1
f 48/43/1 52/41/1 50/42/1
f 45/12/1 61/9/1 55/47/1
f 3/21/1 59/48/1 62/4/1 63/46/1
f 63/46/1 60/31/1 68/28/1 64/49/1
f 50/42/1 49/16/1 47/13/1 45/12/1
f 55/47/1 53/8/1 58/5/1 59/48/1
f 50/42/1 3/21/1 4/26/1 48/43/1
f 57/45/1 66/44/1 3/21/1
f 57/45/1 3/21/1 64/49/1 65/35/1
f 45/12/2 55/47/2 59/48/2
f 63/46/1 64/49/1 3/21/1
f 3/21/1 50/42/1 45/12/1
f 3/21/1 45/12/1 59/48/1
f 5/21/3 6/26/3 4/20/3 3/22/3
f 35/52/4 32/51/4 72/50/4
f 81/56/4 36/55/4 11/54/4 76/53/4
f 73/60/4 38/59/4 19/58/4 80/57/4
f 15/63/4 9/62/4 87/61/4
f 92/67/4 94/66/4 30/65/4 90/64/4
f 23/70/4 17/69/4 93/68/4
f 5/22/4 7/21/4 25/72/4 98/71/4
f 82/76/4 88/75/4 43/74/4 27/73/4
f 94/66/4 44/77/4 30/65/4
f 86/79/4 91/78/4 15/63/4 87/61/4
f 92/67/4 97/80/4 23/70/4 93/68/4
f 84/83/4 40/82/4 41/81/4
f 77/85/4 83/84/4 35/52/4 72/50/4
f 6/20/4 75/87/4 37/86/4 8/26/4
f 77/85/4 75/87/4 6/20/4
f 5/22/4 98/71/4 85/88/4
f 85/88/4 84/83/4 41/81/4 96/89/4
f 86/79/4 88/75/4 82/76/4 74/90/4
f 74/90/4 73/60/4 80/57/4 79/91/4
f 78/92/4 83/84/4 77/85/4
f 95/93/4 97/80/4 92/67/4
f 89/94/4 91/78/4 86/79/4
f 92/67/4 90/64/4 89/94/4
f 78/92/4 79/91/4 81/56/4 76/53/4
f 95/93/4 5/22/4 85/88/4 96/89/4
f 78/92/4 77/85/4 6/20/4 5/22/4
f 92/67/2 89/94/2 86/79/2
f 5/22/4 95/93/4 92/67/4
f 79/91/4 78/92/4 5/22/4
f 5/22/4 86/79/4 74/90/4
f 5/22/4 92/67/4 86/79/4
f 5/22/4 74/90/4 79/91/4
f 39/82/5 22/81/5 41/39/5 40/38/5
f 24/70/5 18/69/5 17/34/5 23/33/5
f 42/77/5 14/65/5 30/30/5 44/29/5
f 16/63/5 10/62/5 9/3/5 15/2/5
f 31/74/5 33/73/5 27/7/5 43/6/5
f 34/59/5 28/58/5 19/32/5 38/10/5
f 29/55/5 20/54/5 11/15/5 36/14/5
f 21/52/5 12/51/5 32/19/5 35/18/5
f 25/23/5 7/22/5 1/21/5 26/72/5
f 13/86/5 2/26/5 8/20/5 37/25/5
f 4/21/6 6/26/6 8/20/6 2/22/6
f 5/21/7 3/26/7 1/20/7 7/22/7
f 72/98/8 100/97/8 99/96/8 77/95/8
f 72/98/6 32/100/6 148/99/6 100/97/6
f 103/104/7 140/103/7 37/102/7 119/101/7
f 77/106/9 99/105/9 103/104/9 119/101/9
f 101/98/10 105/97/10 104/96/10 132/95/10
f 101/98/6 11/100/6 145/99/6 105/97/6
f 107/104/7 144/103/7 35/102/7 83/101/7
f 132/106/11 104/105/11 107/104/11 83/101/11
f 106/98/10 102/97/10 108/96/10 133/95/10
f 106/98/6 19/100/6 149/99/6 102/97/6
f 111/104/7 143/103/7 146/102/7 135/101/7
f 133/106/11 108/105/11 111/104/11 135/101/11
f 110/98/12 53/97/12 112/96/12 134/107/12
f 110/98/6 27/100/6 33/99/6 53/97/6
f 109/104/7 34/103/7 150/102/7 73/101/7
f 134/106/13 112/105/13 109/104/13 73/101/13
f 129/98/12 62/97/12 116/96/12 86/107/12
f 129/98/6 9/100/6 10/99/6 62/97/6
f 58/104/7 151/103/7 153/102/7 88/101/7
f 86/106/14 116/105/14 58/104/14 88/101/14
f 118/98/15 114/97/15 121/96/15 89/95/15
f 118/98/6 30/100/6 155/99/6 114/97/6
f 117/104/7 16/103/7 15/102/7 91/101/7
f 89/106/11 121/105/11 117/104/11 91/101/11
f 115/98/16 127/97/16 126/96/16 92/95/16
f 115/98/6 154/100/6 152/99/6 127/97/6
f 122/104/7 139/103/7 156/102/7 94/101/7
f 92/106/11 126/105/11 122/104/11 94/101/11
f 120/98/10 123/97/10 124/96/10 137/108/10
f 120/98/6 41/100/6 157/99/6 123/97/6
f 131/104/7 142/103/7 23/102/7 136/101/7
f 137/106/11 124/105/11 131/104/11 136/101/11
f 125/98/8 113/97/8 128/96/8 85/95/8
f 125/98/17 25/100/17 141/99/17 113/97/17
f 130/104/18 147/103/18 40/102/18 138/101/18
f 85/106/19 128/105/19 130/104/19 138/101/19

