# WaveFront *.obj file (generated by CINEMA 4D)

mtllib ./5bis.interaction_fenetre.mtl

v -2.82082080841064 -34.93363952636719 52.06986618041992
v -1.48357999324799 -23.71302223205566 52.71197891235352
v 2.15632009506226 -34.93363952636719 52.06986618041992
v 2.15632009506226 -23.71302223205566 52.71197891235352
v 2.15632009506226 -31.99612808227539 0.73833549022675
v 2.15632009506226 -20.77550888061523 1.38045012950897
v -2.82082080841064 -31.99612808227539 0.73833549022675
v -1.48357999324799 -20.77550888061523 1.38045012950897
v -2.82082080841064 -22.24032592773438 52.46133804321289
v -1.48357999324799 -11.00135040283203 52.46133804321289
v 2.15632009506226 -22.24032592773438 52.46133804321289
v 2.15632009506226 -11.00135040283203 52.46133804321289
v 2.15632009506226 -22.24032592773438 1.0458277463913
v 2.15632009506226 -11.00135040283203 1.0458277463913
v -2.82082080841064 -22.24032592773438 1.0458277463913
v -1.48357999324799 -11.00135040283203 1.0458277463913
v -2.82082080841064 -11.06456279754639 52.46133804321289
v -1.48357999324799 0.17441363632679 52.46133804321289
v 2.15632009506226 -11.06456279754639 52.46133804321289
v 2.15632009506226 0.17441363632679 52.46133804321289
v 2.15632009506226 -11.06456279754639 1.0458277463913
v 2.15632009506226 0.17441363632679 1.0458277463913
v -2.82082080841064 -11.06456279754639 1.0458277463913
v -1.48357999324799 0.17441363632679 1.0458277463913
v -2.82082080841064 0.05437237769365 51.25018310546875
v -1.48357999324799 11.29334831237793 51.25018310546875
v 2.15632009506226 0.05437237769365 51.25018310546875
v 2.15632009506226 11.29334831237793 51.25018310546875
v 2.15632009506226 0.05437237769365 1.33019912242889
v 2.15632009506226 11.29334831237793 1.33019912242889
v -2.82082080841064 0.05437237769365 1.33019912242889
v -1.48357999324799 11.29334831237793 1.33019912242889
v -2.82082080841064 11.16170692443848 52.46133804321289
v -1.48357999324799 22.40068244934082 52.46133804321289
v 2.15632009506226 11.16170692443848 52.46133804321289
v 2.15632009506226 22.40068244934082 52.46133804321289
v 2.15632009506226 11.16170692443848 1.0458277463913
v 2.15632009506226 22.40068244934082 1.0458277463913
v -2.82082080841064 11.16170692443848 1.0458277463913
v -1.48357999324799 22.40068244934082 1.0458277463913
v -2.82082080841064 22.23508644104004 47.38458633422852
v -1.48357999324799 33.47406387329102 47.38458633422852
v 2.15632009506226 22.23508644104004 47.38458633422852
v 2.15632009506226 33.47406387329102 47.38458633422852
v 2.15632009506226 22.23508644104004 1.4994410276413
v 2.15632009506226 33.47406387329102 1.4994410276413
v -2.82082080841064 22.23508644104004 1.4994410276413
v -1.48357999324799 33.47406387329102 1.4994410276413
v -0.33637002110481 12.94572830200195 1.06912124156952
v -0.33637002110481 23.70061683654785 1.06912124156952
v 2.47966837882996 12.94572830200195 1.06912124156952
v 2.47966837882996 23.70061683654785 1.06912124156952
v 1.07164919376373 12.94572830200195 -1.36963951587677
v 1.07164919376373 23.70061683654785 -1.36963951587677
v -1.744389295578 12.94572830200195 -1.36963951587677
v -1.744389295578 23.70061683654785 -1.36963951587677
v -3.15240859985352 12.94572830200195 1.06912124156952
v -3.15240859985352 23.70061683654785 1.06912124156952
v -1.744389295578 12.94572830200195 3.5078821182251
v -1.744389295578 23.70061683654785 3.5078821182251
v 1.07164919376373 12.94572830200195 3.5078821182251
v 1.07164919376373 23.70061683654785 3.5078821182251
v -0.33637002110481 -26.48314094543457 1.06912124156952
v -0.33637002110481 -15.72825145721436 1.06912124156952
v 2.47966837882996 -26.48314094543457 1.06912124156952
v 2.47966837882996 -15.72825145721436 1.06912124156952
v 1.07164919376373 -26.48314094543457 -1.36963951587677
v 1.07164919376373 -15.72825145721436 -1.36963951587677
v -1.744389295578 -26.48314094543457 -1.36963951587677
v -1.744389295578 -15.72825145721436 -1.36963951587677
v -3.15240859985352 -26.48314094543457 1.06912124156952
v -3.15240859985352 -15.72825145721436 1.06912124156952
v -1.744389295578 -26.48314094543457 3.5078821182251
v -1.744389295578 -15.72825145721436 3.5078821182251
v 1.07164919376373 -26.48314094543457 3.5078821182251
v 1.07164919376373 -15.72825145721436 3.5078821182251
# 76 vertices

vn 0 -0.05712632462382 0.99836695194244
vn 1 0 0
vn 0 0.05712632462382 -0.99836695194244
vn -0.99299764633179 0.11794093251228 0.00675019621849
vn 0 0.99836695194244 0.05712632462382
vn 0 -0.99836695194244 -0.05712632462382
vn 0 0 1
vn 0 0 -1
vn -0.99299830198288 0.11812851577997 0
vn 0 1 0
vn 0 -1 0
vn 0.86601907014847 0 -0.50001096725464
vn -0.86601907014847 0 -0.50001096725464
vn -0.86601907014847 0 0.50001096725464
vn 0.86601907014847 0 0.50001096725464
# 15 normals

vt 0 0 0
vt 0 1 0
vt 1 1 0
vt 1 0 0
vt 0.5 0.5 0
vt 0 0.5 0
vt 0.25 0.93301272392273 0
vt 0.16666667163372 1 0
vt 0.16666667163372 0 0
vt 1 0.5 0
vt 0.75 0.93301272392273 0
vt 0.33333334326744 1 0
vt 0.33333334326744 0 0
vt 0.5 1 0
vt 0.5 0 0
vt 0.75 0.06698727607727 0
vt 0.66666668653488 1 0
vt 0.66666668653488 0 0
vt 0.25 0.06698727607727 0
vt 0.83333331346512 1 0
vt 0.83333331346512 0 0
# 21 texture coordinates

o 5bis.interaction_fenetre
usemtl default
f 3/4/1 4/3/1 2/2/1 1/1/1
f 5/4/2 6/3/2 4/2/2 3/1/2
f 7/4/3 8/3/3 6/2/3 5/1/3
f 1/4/4 2/3/4 8/2/4 7/1/4
f 4/4/5 6/3/5 8/2/5 2/1/5
f 5/4/6 3/3/6 1/2/6 7/1/6
f 11/4/7 12/3/7 10/2/7 9/1/7
f 13/4/2 14/3/2 12/2/2 11/1/2
f 15/4/8 16/3/8 14/2/8 13/1/8
f 9/4/9 10/3/9 16/2/9 15/1/9
f 12/4/10 14/3/10 16/2/10 10/1/10
f 13/4/11 11/3/11 9/2/11 15/1/11
f 19/4/7 20/3/7 18/2/7 17/1/7
f 21/4/2 22/3/2 20/2/2 19/1/2
f 23/4/8 24/3/8 22/2/8 21/1/8
f 17/4/9 18/3/9 24/2/9 23/1/9
f 20/4/10 22/3/10 24/2/10 18/1/10
f 21/4/11 19/3/11 17/2/11 23/1/11
f 27/4/7 28/3/7 26/2/7 25/1/7
f 29/4/2 30/3/2 28/2/2 27/1/2
f 31/4/8 32/3/8 30/2/8 29/1/8
f 25/4/9 26/3/9 32/2/9 31/1/9
f 28/4/10 30/3/10 32/2/10 26/1/10
f 29/4/11 27/3/11 25/2/11 31/1/11
f 35/4/7 36/3/7 34/2/7 33/1/7
f 37/4/2 38/3/2 36/2/2 35/1/2
f 39/4/8 40/3/8 38/2/8 37/1/8
f 33/4/9 34/3/9 40/2/9 39/1/9
f 36/4/10 38/3/10 40/2/10 34/1/10
f 37/4/11 35/3/11 33/2/11 39/1/11
f 43/4/7 44/3/7 42/2/7 41/1/7
f 45/4/2 46/3/2 44/2/2 43/1/2
f 47/4/8 48/3/8 46/2/8 45/1/8
f 41/4/9 42/3/9 48/2/9 47/1/9
f 44/4/10 46/3/10 48/2/10 42/1/10
f 45/4/11 43/3/11 41/2/11 47/1/11
f 53/7/11 51/6/11 49/5/11
f 53/9/12 54/8/12 52/2/12 51/1/12
f 54/11/10 50/5/10 52/10/10
f 55/11/11 53/7/11 49/5/11
f 55/13/8 56/12/8 54/8/8 53/9/8
f 56/7/10 50/5/10 54/11/10
f 57/10/11 55/11/11 49/5/11
f 57/15/13 58/14/13 56/12/13 55/13/13
f 58/6/10 50/5/10 56/7/10
f 59/16/11 57/10/11 49/5/11
f 59/18/14 60/17/14 58/14/14 57/15/14
f 60/19/10 50/5/10 58/6/10
f 61/19/11 59/16/11 49/5/11
f 61/21/7 62/20/7 60/17/7 59/18/7
f 62/16/10 50/5/10 60/19/10
f 51/6/11 61/19/11 49/5/11
f 51/4/15 52/3/15 62/20/15 61/21/15
f 52/10/10 50/5/10 62/16/10
f 67/7/11 65/6/11 63/5/11
f 67/9/12 68/8/12 66/2/12 65/1/12
f 68/11/10 64/5/10 66/10/10
f 69/11/11 67/7/11 63/5/11
f 69/13/8 70/12/8 68/8/8 67/9/8
f 70/7/10 64/5/10 68/11/10
f 71/10/11 69/11/11 63/5/11
f 71/15/13 72/14/13 70/12/13 69/13/13
f 72/6/10 64/5/10 70/7/10
f 73/16/11 71/10/11 63/5/11
f 73/18/14 74/17/14 72/14/14 71/15/14
f 74/19/10 64/5/10 72/6/10
f 75/19/11 73/16/11 63/5/11
f 75/21/7 76/20/7 74/17/7 73/18/7
f 76/16/10 64/5/10 74/19/10
f 65/6/11 75/19/11 63/5/11
f 65/4/15 66/3/15 76/20/15 75/21/15
f 66/10/10 64/5/10 76/16/10

