# WaveFront *.obj file (generated by CINEMA 4D)

mtllib ./2.interaction_volethaut.mtl

v -2.8819408416748 -37.29401779174805 45.04974746704102
v -2.8819408416748 37.29401779174805 45.04974746704102
v 2.8819408416748 -37.29401779174805 45.04974746704102
v 2.8819408416748 37.29401779174805 45.04974746704102
v 2.8819408416748 -37.29401779174805 -45.04974746704102
v 2.8819408416748 37.29401779174805 -45.04974746704102
v -2.8819408416748 -37.29401779174805 -45.04974746704102
v -2.8819408416748 37.29401779174805 -45.04974746704102
v 0.5657172203064 32.1837272644043 45.04974746704102
v 0.5657172203064 34.17516708374023 45.04974746704102
v 4.0876030921936 32.1837272644043 45.04974746704102
v 4.0876030921936 34.17516708374023 45.04974746704102
v 4.0876030921936 32.1837272644043 -45.04974746704102
v 4.0876030921936 34.17516708374023 -45.04974746704102
v 0.5657172203064 32.1837272644043 -45.04974746704102
v 0.5657172203064 34.17516708374023 -45.04974746704102
v 0.5657172203064 26.88132476806641 45.04974746704102
v 0.5657172203064 28.87276458740234 45.04974746704102
v 4.0876030921936 26.88132476806641 45.04974746704102
v 4.0876030921936 28.87276458740234 45.04974746704102
v 4.0876030921936 26.88132476806641 -45.04974746704102
v 4.0876030921936 28.87276458740234 -45.04974746704102
v 0.5657172203064 26.88132476806641 -45.04974746704102
v 0.5657172203064 28.87276458740234 -45.04974746704102
v 0.5657172203064 20.43499374389648 45.04974746704102
v 0.5657172203064 22.42643547058105 45.04974746704102
v 4.0876030921936 20.43499374389648 45.04974746704102
v 4.0876030921936 22.42643547058105 45.04974746704102
v 4.0876030921936 20.43499374389648 -45.04974746704102
v 4.0876030921936 22.42643547058105 -45.04974746704102
v 0.5657172203064 20.43499374389648 -45.04974746704102
v 0.5657172203064 22.42643547058105 -45.04974746704102
v 0.5657172203064 14.36367797851562 45.04974746704102
v 0.5657172203064 16.3551197052002 45.04974746704102
v 4.0876030921936 14.36367797851562 45.04974746704102
v 4.0876030921936 16.3551197052002 45.04974746704102
v 4.0876030921936 14.36367797851562 -45.04974746704102
v 4.0876030921936 16.3551197052002 -45.04974746704102
v 0.5657172203064 14.36367797851562 -45.04974746704102
v 0.5657172203064 16.3551197052002 -45.04974746704102
v 0.5657172203064 8.38379859924316 45.04974746704102
v 0.5657172203064 10.37523937225342 45.04974746704102
v 4.0876030921936 8.38379859924316 45.04974746704102
v 4.0876030921936 10.37523937225342 45.04974746704102
v 4.0876030921936 8.38379859924316 -45.04974746704102
v 4.0876030921936 10.37523937225342 -45.04974746704102
v 0.5657172203064 8.38379859924316 -45.04974746704102
v 0.5657172203064 10.37523937225342 -45.04974746704102
v 0.5657172203064 2.36067295074463 45.04974746704102
v 0.5657172203064 4.35211420059204 45.04974746704102
v 4.0876030921936 2.36067295074463 45.04974746704102
v 4.0876030921936 4.35211420059204 45.04974746704102
v 4.0876030921936 2.36067295074463 -45.04974746704102
v 4.0876030921936 4.35211420059204 -45.04974746704102
v 0.5657172203064 2.36067295074463 -45.04974746704102
v 0.5657172203064 4.35211420059204 -45.04974746704102
v 0.5657172203064 -3.56562900543213 45.04974746704102
v 0.5657172203064 -1.57418775558472 45.04974746704102
v 4.0876030921936 -3.56562900543213 45.04974746704102
v 4.0876030921936 -1.57418775558472 45.04974746704102
v 4.0876030921936 -3.56562900543213 -45.04974746704102
v 4.0876030921936 -1.57418775558472 -45.04974746704102
v 0.5657172203064 -3.56562900543213 -45.04974746704102
v 0.5657172203064 -1.57418775558472 -45.04974746704102
v 0.5657172203064 -9.53889942169189 45.04974746704102
v 0.5657172203064 -7.54745864868164 45.04974746704102
v 4.0876030921936 -9.53889942169189 45.04974746704102
v 4.0876030921936 -7.54745864868164 45.04974746704102
v 4.0876030921936 -9.53889942169189 -45.04974746704102
v 4.0876030921936 -7.54745864868164 -45.04974746704102
v 0.5657172203064 -9.53889942169189 -45.04974746704102
v 0.5657172203064 -7.54745864868164 -45.04974746704102
v 0.5657172203064 -15.5603551864624 45.04974746704102
v 0.5657172203064 -13.56891345977783 45.04974746704102
v 4.0876030921936 -15.5603551864624 45.04974746704102
v 4.0876030921936 -13.56891345977783 45.04974746704102
v 4.0876030921936 -15.5603551864624 -45.04974746704102
v 4.0876030921936 -13.56891345977783 -45.04974746704102
v 0.5657172203064 -15.5603551864624 -45.04974746704102
v 0.5657172203064 -13.56891345977783 -45.04974746704102
v 0.5657172203064 -21.62443542480469 45.04974746704102
v 0.5657172203064 -19.63299560546875 45.04974746704102
v 4.0876030921936 -21.62443542480469 45.04974746704102
v 4.0876030921936 -19.63299560546875 45.04974746704102
v 4.0876030921936 -21.62443542480469 -45.04974746704102
v 4.0876030921936 -19.63299560546875 -45.04974746704102
v 0.5657172203064 -21.62443542480469 -45.04974746704102
v 0.5657172203064 -19.63299560546875 -45.04974746704102
v 0.5657172203064 -27.58824729919434 45.04974746704102
v 0.5657172203064 -25.5968074798584 45.04974746704102
v 4.0876030921936 -27.58824729919434 45.04974746704102
v 4.0876030921936 -25.5968074798584 45.04974746704102
v 4.0876030921936 -27.58824729919434 -45.04974746704102
v 4.0876030921936 -25.5968074798584 -45.04974746704102
v 0.5657172203064 -27.58824729919434 -45.04974746704102
v 0.5657172203064 -25.5968074798584 -45.04974746704102
v 0.5657172203064 -33.6689567565918 45.04974746704102
v 0.5657172203064 -31.67751693725586 45.04974746704102
v 4.0876030921936 -33.6689567565918 45.04974746704102
v 4.0876030921936 -31.67751693725586 45.04974746704102
v 4.0876030921936 -33.6689567565918 -45.04974746704102
v 4.0876030921936 -31.67751693725586 -45.04974746704102
v 0.5657172203064 -33.6689567565918 -45.04974746704102
v 0.5657172203064 -31.67751693725586 -45.04974746704102
# 104 vertices

vn 0 0 1
vn 1 0 0
vn 0 0 -1
vn -1 0 0
vn 0 1 0
vn 0 -1 0
# 6 normals

vt 0 0 0
vt 0 1 0
vt 1 1 0
vt 1 0 0
# 4 texture coordinates

o 2.interaction_volethaut
usemtl blanc
f 3/4/1 4/3/1 2/2/1 1/1/1
f 5/4/2 6/3/2 4/2/2 3/1/2
f 7/4/3 8/3/3 6/2/3 5/1/3
f 1/4/4 2/3/4 8/2/4 7/1/4
f 4/4/5 6/3/5 8/2/5 2/1/5
f 5/4/6 3/3/6 1/2/6 7/1/6
f 11/4/1 12/3/1 10/2/1 9/1/1
f 13/4/2 14/3/2 12/2/2 11/1/2
f 15/4/3 16/3/3 14/2/3 13/1/3
f 9/4/4 10/3/4 16/2/4 15/1/4
f 12/4/5 14/3/5 16/2/5 10/1/5
f 13/4/6 11/3/6 9/2/6 15/1/6
f 19/4/1 20/3/1 18/2/1 17/1/1
f 21/4/2 22/3/2 20/2/2 19/1/2
f 23/4/3 24/3/3 22/2/3 21/1/3
f 17/4/4 18/3/4 24/2/4 23/1/4
f 20/4/5 22/3/5 24/2/5 18/1/5
f 21/4/6 19/3/6 17/2/6 23/1/6
f 27/4/1 28/3/1 26/2/1 25/1/1
f 29/4/2 30/3/2 28/2/2 27/1/2
f 31/4/3 32/3/3 30/2/3 29/1/3
f 25/4/4 26/3/4 32/2/4 31/1/4
f 28/4/5 30/3/5 32/2/5 26/1/5
f 29/4/6 27/3/6 25/2/6 31/1/6
f 35/4/1 36/3/1 34/2/1 33/1/1
f 37/4/2 38/3/2 36/2/2 35/1/2
f 39/4/3 40/3/3 38/2/3 37/1/3
f 33/4/4 34/3/4 40/2/4 39/1/4
f 36/4/5 38/3/5 40/2/5 34/1/5
f 37/4/6 35/3/6 33/2/6 39/1/6
f 43/4/1 44/3/1 42/2/1 41/1/1
f 45/4/2 46/3/2 44/2/2 43/1/2
f 47/4/3 48/3/3 46/2/3 45/1/3
f 41/4/4 42/3/4 48/2/4 47/1/4
f 44/4/5 46/3/5 48/2/5 42/1/5
f 45/4/6 43/3/6 41/2/6 47/1/6
f 51/4/1 52/3/1 50/2/1 49/1/1
f 53/4/2 54/3/2 52/2/2 51/1/2
f 55/4/3 56/3/3 54/2/3 53/1/3
f 49/4/4 50/3/4 56/2/4 55/1/4
f 52/4/5 54/3/5 56/2/5 50/1/5
f 53/4/6 51/3/6 49/2/6 55/1/6
f 59/4/1 60/3/1 58/2/1 57/1/1
f 61/4/2 62/3/2 60/2/2 59/1/2
f 63/4/3 64/3/3 62/2/3 61/1/3
f 57/4/4 58/3/4 64/2/4 63/1/4
f 60/4/5 62/3/5 64/2/5 58/1/5
f 61/4/6 59/3/6 57/2/6 63/1/6
f 67/4/1 68/3/1 66/2/1 65/1/1
f 69/4/2 70/3/2 68/2/2 67/1/2
f 71/4/3 72/3/3 70/2/3 69/1/3
f 65/4/4 66/3/4 72/2/4 71/1/4
f 68/4/5 70/3/5 72/2/5 66/1/5
f 69/4/6 67/3/6 65/2/6 71/1/6
f 75/4/1 76/3/1 74/2/1 73/1/1
f 77/4/2 78/3/2 76/2/2 75/1/2
f 79/4/3 80/3/3 78/2/3 77/1/3
f 73/4/4 74/3/4 80/2/4 79/1/4
f 76/4/5 78/3/5 80/2/5 74/1/5
f 77/4/6 75/3/6 73/2/6 79/1/6
f 83/4/1 84/3/1 82/2/1 81/1/1
f 85/4/2 86/3/2 84/2/2 83/1/2
f 87/4/3 88/3/3 86/2/3 85/1/3
f 81/4/4 82/3/4 88/2/4 87/1/4
f 84/4/5 86/3/5 88/2/5 82/1/5
f 85/4/6 83/3/6 81/2/6 87/1/6
f 91/4/1 92/3/1 90/2/1 89/1/1
f 93/4/2 94/3/2 92/2/2 91/1/2
f 95/4/3 96/3/3 94/2/3 93/1/3
f 89/4/4 90/3/4 96/2/4 95/1/4
f 92/4/5 94/3/5 96/2/5 90/1/5
f 93/4/6 91/3/6 89/2/6 95/1/6
f 99/4/1 100/3/1 98/2/1 97/1/1
f 101/4/2 102/3/2 100/2/2 99/1/2
f 103/4/3 104/3/3 102/2/3 101/1/3
f 97/4/4 98/3/4 104/2/4 103/1/4
f 100/4/5 102/3/5 104/2/5 98/1/5
f 101/4/6 99/3/6 97/2/6 103/1/6

