# WaveFront *.obj file (generated by CINEMA 4D)

mtllib ./2bis.interaction_fenetre.mtl

v 3.59775424003601 -36.14645385742188 -0.24299128353596
v 3.59775424003601 -26.70818519592285 -0.24299128353596
v 5.97573614120483 -36.14645385742188 -0.24299128353596
v 5.97573614120483 -26.70818519592285 -0.24299128353596
v 4.78674554824829 -36.14645385742188 -2.3023841381073
v 4.78674554824829 -26.70818519592285 -2.3023841381073
v 2.40876340866089 -36.14645385742188 -2.3023841381073
v 2.40876340866089 -26.70818519592285 -2.3023841381073
v 1.21977233886719 -36.14645385742188 -0.24299128353596
v 1.21977233886719 -26.70818519592285 -0.24299128353596
v 2.40876340866089 -36.14645385742188 1.81640160083771
v 2.40876340866089 -26.70818519592285 1.81640160083771
v 4.78674554824829 -36.14645385742188 1.81640160083771
v 4.78674554824829 -26.70818519592285 1.81640160083771
v 3.59775424003601 -4.22916173934937 -0.24299128353596
v 3.59775424003601 5.20910835266113 -0.24299128353596
v 5.97573614120483 -4.22916173934937 -0.24299128353596
v 5.97573614120483 5.20910835266113 -0.24299128353596
v 4.78674554824829 -4.22916173934937 -2.3023841381073
v 4.78674554824829 5.20910835266113 -2.3023841381073
v 2.40876340866089 -4.22916173934937 -2.3023841381073
v 2.40876340866089 5.20910835266113 -2.3023841381073
v 1.21977233886719 -4.22916173934937 -0.24299128353596
v 1.21977233886719 5.20910835266113 -0.24299128353596
v 2.40876340866089 -4.22916173934937 1.81640160083771
v 2.40876340866089 5.20910835266113 1.81640160083771
v 4.78674554824829 -4.22916173934937 1.81640160083771
v 4.78674554824829 5.20910835266113 1.81640160083771
v 3.59775424003601 28.86871910095215 -0.24299128353596
v 3.59775424003601 38.30698776245117 -0.24299128353596
v 5.97573614120483 28.86871910095215 -0.24299128353596
v 5.97573614120483 38.30698776245117 -0.24299128353596
v 4.78674554824829 28.86871910095215 -2.3023841381073
v 4.78674554824829 38.30698776245117 -2.3023841381073
v 2.40876340866089 28.86871910095215 -2.3023841381073
v 2.40876340866089 38.30698776245117 -2.3023841381073
v 1.21977233886719 28.86871910095215 -0.24299128353596
v 1.21977233886719 38.30698776245117 -0.24299128353596
v 2.40876340866089 28.86871910095215 1.81640160083771
v 2.40876340866089 38.30698776245117 1.81640160083771
v 4.78674554824829 28.86871910095215 1.81640160083771
v 4.78674554824829 38.30698776245117 1.81640160083771
v 0.19890989363194 -37.18275451660156 59.36087417602539
v 0.19890989363194 36.94951248168945 59.36087417602539
v 2.58789730072021 -37.18275451660156 59.36087417602539
v 2.58789730072021 36.94951248168945 59.36087417602539
v 2.58789730072021 -37.18275451660156 7.19190835952759
v 2.58789730072021 36.94951248168945 7.19190835952759
v 0.19890989363194 -37.18275451660156 7.19190835952759
v 0.19890989363194 36.94951248168945 7.19190835952759
v 0.19890989363194 36.94951248168945 11.34618091583252
v 2.58789730072021 36.94951248168945 11.34618091583252
v 2.58789730072021 -37.18275451660156 11.34618091583252
v 0.19890989363194 -37.18275451660156 11.34618091583252
v 0.19890989363194 36.94951248168945 55.31222534179688
v 2.58789730072021 36.94951248168945 55.31222534179688
v 2.58789730072021 -37.18275451660156 55.31222534179688
v 0.19890989363194 -37.18275451660156 55.31222534179688
v 0.19890989363194 32.96833419799805 7.19190835952759
v 0.19890989363194 32.96833419799805 11.34618091583252
v 0.19890989363194 32.96833419799805 55.31222534179688
v 0.19890989363194 32.96833419799805 59.36087417602539
v 2.58789730072021 32.96833419799805 59.36087417602539
v 2.58789730072021 32.96833419799805 55.31222534179688
v 2.58789730072021 32.96833419799805 11.34618091583252
v 2.58789730072021 32.96833419799805 7.19190835952759
v 0.19890989363194 -32.98073577880859 7.19190835952759
v 0.19890989363194 -32.98073577880859 11.34618091583252
v 0.19890989363194 -32.98073577880859 55.31222534179688
v 0.19890989363194 -32.98073577880859 59.36087417602539
v 2.58789730072021 -32.98073577880859 59.36087417602539
v 2.58789730072021 -32.98073577880859 55.31222534179688
v 2.58789730072021 -32.98073577880859 11.34618091583252
v 2.58789730072021 -32.98073577880859 7.19190835952759
v 1.74749624729156 -43.03013229370117 65.54135894775391
v 1.74749624729156 42.79689025878906 65.54135894775391
v 5.74749612808228 -43.03013229370117 65.54135894775391
v 5.74749612808228 42.79689025878906 65.54135894775391
v 5.74749612808228 -43.03013229370117 -0.02714574709535
v 5.74749612808228 42.79689025878906 -0.02714574709535
v 1.74749624729156 -43.03013229370117 -0.02714574709535
v 1.74749624729156 42.79689025878906 -0.02714574709535
# 82 vertices

vn 0 -1 0
vn 0 0 0
vn 0.8660255074501 0 -0.49999985098839
vn 0 1 0
vn 0 0 -1
vn -0.86602538824081 0 -0.5
vn -0.86602538824081 0 0.5
vn 0 0 1
vn 0.8660255074501 0 0.49999985098839
vn 0.86602544784546 0 -0.49999988079071
vn 0.86602544784546 0 0.49999988079071
vn 1 0 0
vn -1 0 0
# 13 normals

vt 0.5 0.5 0
vt 0 0.5 0
vt 0.25 0.93301272392273 0
vt 0 0 0
vt 0 1 0
vt 0.16666667163372 1 0
vt 0.16666667163372 0 0
vt 1 0.5 0
vt 0.75 0.93301272392273 0
vt 0.33333334326744 1 0
vt 0.33333334326744 0 0
vt 0.5 1 0
vt 0.5 0 0
vt 0.75 0.06698727607727 0
vt 0.66666668653488 1 0
vt 0.66666668653488 0 0
vt 0.25 0.06698727607727 0
vt 0.83333331346512 1 0
vt 0.83333331346512 0 0
vt 1 1 0
vt 1 0 0
vt 0 0.05668270587921 0
vt 1 0.05668270587921 0
vt 0.07760641723871 0.05668270587921 0
vt 0.07760641723871 0 0
vt 0.92239356040955 0 0
vt 0.92239356040955 0.05668270587921 0
vt 0 0.07760643959045 0
vt 1 0.07760643959045 0
vt 0 0.92239356040955 0
vt 1 0.92239356040955 0
vt 0 0.92036890983582 0
vt 1 0.92036890983582 0
vt 0.92036890983582 0 0
vt 0.92036890983582 0.05668270587921 0
vt 1 0.07963109016418 0
vt 0 0.07963109016418 0
vt 0.07963109761477 0 0
vt 0.07963109761477 0.05668270587921 0
vt 0 0.94629627466202 0
vt 0.07963109761477 1 0
vt 0.07963109761477 0.94629627466202 0
vt 0.92239356040955 1 0
vt 0.92239356040955 0.94629627466202 0
vt 1 0.94629627466202 0
vt 0.07760641723871 1 0
vt 0.07760641723871 0.94629627466202 0
vt 0.92036890983582 1 0
vt 0.92036890983582 0.94629627466202 0
# 49 texture coordinates

o 2bis.interaction_fenetre
usemtl blanc
f 5/3/1 3/2/1 1/1/1
f 5/7/3 6/6/3 4/5/3 3/4/3
f 6/9/4 2/1/4 4/8/4
f 7/9/1 5/3/1 1/1/1
f 7/11/5 8/10/5 6/6/5 5/7/5
f 8/3/4 2/1/4 6/9/4
f 9/8/1 7/9/1 1/1/1
f 9/13/6 10/12/6 8/10/6 7/11/6
f 10/2/4 2/1/4 8/3/4
f 11/14/1 9/8/1 1/1/1
f 11/16/7 12/15/7 10/12/7 9/13/7
f 12/17/4 2/1/4 10/2/4
f 13/17/1 11/14/1 1/1/1
f 13/19/8 14/18/8 12/15/8 11/16/8
f 14/14/4 2/1/4 12/17/4
f 3/2/1 13/17/1 1/1/1
f 3/21/9 4/20/9 14/18/9 13/19/9
f 4/8/4 2/1/4 14/14/4
f 19/3/1 17/2/1 15/1/1
f 19/7/10 20/6/10 18/5/10 17/4/10
f 20/9/4 16/1/4 18/8/4
f 21/9/1 19/3/1 15/1/1
f 21/11/5 22/10/5 20/6/5 19/7/5
f 22/3/4 16/1/4 20/9/4
f 23/8/1 21/9/1 15/1/1
f 23/13/6 24/12/6 22/10/6 21/11/6
f 24/2/4 16/1/4 22/3/4
f 25/14/1 23/8/1 15/1/1
f 25/16/7 26/15/7 24/12/7 23/13/7
f 26/17/4 16/1/4 24/2/4
f 27/17/1 25/14/1 15/1/1
f 27/19/8 28/18/8 26/15/8 25/16/8
f 28/14/4 16/1/4 26/17/4
f 17/2/1 27/17/1 15/1/1
f 17/21/11 18/20/11 28/18/11 27/19/11
f 18/8/4 16/1/4 28/14/4
f 33/3/1 31/2/1 29/1/1
f 33/7/3 34/6/3 32/5/3 31/4/3
f 34/9/4 30/1/4 32/8/4
f 35/9/1 33/3/1 29/1/1
f 35/11/5 36/10/5 34/6/5 33/7/5
f 36/3/4 30/1/4 34/9/4
f 37/8/1 35/9/1 29/1/1
f 37/13/6 38/12/6 36/10/6 35/11/6
f 38/2/4 30/1/4 36/3/4
f 39/14/1 37/8/1 29/1/1
f 39/16/7 40/15/7 38/12/7 37/13/7
f 40/17/4 30/1/4 38/2/4
f 41/17/1 39/14/1 29/1/1
f 41/19/8 42/18/8 40/15/8 39/16/8
f 42/14/4 30/1/4 40/17/4
f 31/2/1 41/17/1 29/1/1
f 31/21/9 32/20/9 42/18/9 41/19/9
f 32/8/4 30/1/4 42/14/4
f 45/21/8 71/23/8 70/22/8 43/4/8
f 57/25/12 72/24/12 71/22/12 45/4/12
f 49/21/5 67/23/5 74/22/5 47/4/5
f 69/27/13 58/26/13 43/21/13 70/23/13
f 46/21/4 56/29/4 55/28/4 44/4/4
f 57/31/1 45/20/1 43/5/1 58/30/1
f 52/33/4 48/20/4 50/5/4 51/32/4
f 73/35/12 53/34/12 47/21/12 74/23/12
f 54/37/1 49/4/1 47/21/1 53/36/1
f 68/39/13 67/22/13 49/4/13 54/38/13
f 56/29/4 52/33/4 51/32/4 55/28/4
f 72/24/12 57/25/12 53/34/12 73/35/12
f 58/30/1 54/37/1 53/36/1 57/31/1
f 69/27/13 68/39/13 54/38/13 58/26/13
f 60/42/13 51/41/13 50/5/13 59/40/13
f 61/44/13 55/43/13 51/41/13 60/42/13
f 62/45/13 44/20/13 55/43/13 61/44/13
f 63/45/8 46/20/8 44/5/8 62/40/8
f 64/47/12 56/46/12 46/5/12 63/40/12
f 65/49/12 52/48/12 56/46/12 64/47/12
f 66/45/12 48/20/12 52/48/12 65/49/12
f 59/45/5 50/20/5 48/5/5 66/40/5
f 68/39/13 60/42/13 59/40/13 67/22/13
f 67/23/5 59/45/5 66/40/5 74/22/5
f 70/23/13 62/45/13 61/44/13 69/27/13
f 71/23/8 63/45/8 62/40/8 70/22/8
f 72/24/12 64/47/12 63/40/12 71/22/12
f 73/35/12 65/49/12 64/47/12 72/24/12
f 74/23/12 66/45/12 65/49/12 73/35/12
f 77/21/8 78/20/8 76/5/8 75/4/8
f 79/21/12 80/20/12 78/5/12 77/4/12
f 81/21/5 82/20/5 80/5/5 79/4/5
f 75/21/13 76/20/13 82/5/13 81/4/13
f 78/21/4 80/20/4 82/5/4 76/4/4
f 79/21/1 77/20/1 75/5/1 81/4/1

